STARTFONT 2.1
FONT -FontForge-A Goblin Appears!-Book-R-Normal--27-260-75-75-P-271-ISO10646-1
SIZE 26 75 75
FONTBOUNDINGBOX 27 27 0 0
COMMENT "Generated by fontforge, http://fontforge.sourceforge.net"
COMMENT "Copyright Chequered Ink Ltd. 2018"
STARTPROPERTIES 39
FOUNDRY "FontForge"
FAMILY_NAME "A Goblin Appears!"
WEIGHT_NAME "Book"
SLANT "R"
SETWIDTH_NAME "Normal"
ADD_STYLE_NAME ""
PIXEL_SIZE 27
POINT_SIZE 260
RESOLUTION_X 75
RESOLUTION_Y 75
SPACING "P"
AVERAGE_WIDTH 271
CHARSET_REGISTRY "ISO10646"
CHARSET_ENCODING "1"
FONTNAME_REGISTRY ""
CHARSET_COLLECTIONS "ISO10646-1"
FONT_NAME "A-Goblin-Appears!"
FACE_NAME "A Goblin Appears!"
COPYRIGHT "Copyright Chequered Ink Ltd. 2018"
FONT_VERSION "1.00;July 19, 2018;FontCreator 11.5.0.2422 64-bit"
FONT_ASCENT 22
FONT_DESCENT 5
UNDERLINE_POSITION 2
UNDERLINE_THICKNESS 2
X_HEIGHT 22
CAP_HEIGHT 26
RAW_ASCENT 799
RAW_DESCENT 200
NORM_SPACE 12
RELATIVE_WEIGHT 40
RELATIVE_SETWIDTH 50
SUPERSCRIPT_X 0
SUPERSCRIPT_Y 13
SUPERSCRIPT_SIZE 13
SUBSCRIPT_X 0
SUBSCRIPT_Y 0
SUBSCRIPT_SIZE 13
AVG_LOWERCASE_WIDTH 294
AVG_UPPERCASE_WIDTH 297
ENDPROPERTIES
CHARS 212
STARTCHAR space
ENCODING 32
SWIDTH 428 0
DWIDTH 12 0
BBX 1 1 0 0
BITMAP
00
ENDCHAR
STARTCHAR exclam
ENCODING 33
SWIDTH 428 0
DWIDTH 12 0
BBX 8 27 0 0
BITMAP
FF
FF
FF
FF
FF
FF
FF
FF
FF
FF
FF
FF
FF
FF
FF
FF
FF
FF
FF
00
00
00
00
FF
FF
FF
FF
ENDCHAR
STARTCHAR quotedbl
ENCODING 34
SWIDTH 856 0
DWIDTH 23 0
BBX 19 15 0 12
BITMAP
FF0FE0
FF0FE0
FF0FE0
FF0FE0
FF0FE0
FF0FE0
FF0FE0
FF0FE0
0F01E0
0F01E0
0F01E0
0F01E0
F00E00
F00E00
F00E00
ENDCHAR
STARTCHAR numbersign
ENCODING 35
SWIDTH 1142 0
DWIDTH 31 0
BBX 27 27 0 0
BITMAP
0FF1FE00
0FF1FE00
0FF1FE00
0FF1FE00
0FF1FE00
0FF1FE00
0FF1FE00
0FF1FE00
FFFFFFE0
FFFFFFE0
FFFFFFE0
FFFFFFE0
0FF1FE00
0FF1FE00
0FF1FE00
FFFFFFE0
FFFFFFE0
FFFFFFE0
FFFFFFE0
0FF1FE00
0FF1FE00
0FF1FE00
0FF1FE00
0FF1FE00
0FF1FE00
0FF1FE00
0FF1FE00
ENDCHAR
STARTCHAR dollar
ENCODING 36
SWIDTH 1142 0
DWIDTH 31 0
BBX 27 27 0 0
BITMAP
000E0000
000E0000
000E0000
000E0000
0FFFFE00
0FFFFE00
0FFFFE00
0FFFFE00
FF0E0000
FF0E0000
FF0E0000
FF0E0000
FFFFFFE0
FFFFFFE0
FFFFFFE0
000E1FE0
000E1FE0
000E1FE0
000E1FE0
0FFFFE00
0FFFFE00
0FFFFE00
0FFFFE00
000E0000
000E0000
000E0000
000E0000
ENDCHAR
STARTCHAR percent
ENCODING 37
SWIDTH 1142 0
DWIDTH 31 0
BBX 27 27 0 0
BITMAP
FF001FE0
FF001FE0
FF001FE0
FF001FE0
FF001FE0
FF001FE0
FF001FE0
FF001FE0
0001FE00
0001FE00
0001FE00
0001FE00
00FFE000
00FFE000
00FFE000
0FF00000
0FF00000
0FF00000
0FF00000
FF001FE0
FF001FE0
FF001FE0
FF001FE0
FF001FE0
FF001FE0
FF001FE0
FF001FE0
ENDCHAR
STARTCHAR ampersand
ENCODING 38
SWIDTH 1142 0
DWIDTH 31 0
BBX 27 27 0 0
BITMAP
0FFFE000
0FFFE000
0FFFE000
0FFFE000
FF01FE00
FF01FE00
FF01FE00
FF01FE00
FF01FE00
FF01FE00
FF01FE00
FF01FE00
0FFFE000
0FFFE000
0FFFE000
FF01FFE0
FF01FFE0
FF01FFE0
FF01FFE0
FF01FE00
FF01FE00
FF01FE00
FF01FE00
0FFE1FE0
0FFE1FE0
0FFE1FE0
0FFE1FE0
ENDCHAR
STARTCHAR quotesingle
ENCODING 39
SWIDTH 428 0
DWIDTH 12 0
BBX 8 15 0 12
BITMAP
FF
FF
FF
FF
FF
FF
FF
FF
0F
0F
0F
0F
F0
F0
F0
ENDCHAR
STARTCHAR parenleft
ENCODING 40
SWIDTH 714 0
DWIDTH 19 0
BBX 15 27 0 0
BITMAP
00FE
00FE
00FE
00FE
0FF0
0FF0
0FF0
0FF0
FF00
FF00
FF00
FF00
FF00
FF00
FF00
FF00
FF00
FF00
FF00
0FF0
0FF0
0FF0
0FF0
00FE
00FE
00FE
00FE
ENDCHAR
STARTCHAR parenright
ENCODING 41
SWIDTH 714 0
DWIDTH 19 0
BBX 15 27 0 0
BITMAP
FF00
FF00
FF00
FF00
0FF0
0FF0
0FF0
0FF0
00FE
00FE
00FE
00FE
00FE
00FE
00FE
00FE
00FE
00FE
00FE
0FF0
0FF0
0FF0
0FF0
FF00
FF00
FF00
FF00
ENDCHAR
STARTCHAR asterisk
ENCODING 42
SWIDTH 1142 0
DWIDTH 31 0
BBX 27 23 0 4
BITMAP
000E0000
000E0000
000E0000
000E0000
00FFE000
00FFE000
00FFE000
00FFE000
FFFFFFE0
FFFFFFE0
FFFFFFE0
FFFFFFE0
0FFFFE00
0FFFFE00
0FFFFE00
00FFE000
00FFE000
00FFE000
00FFE000
0FF1FE00
0FF1FE00
0FF1FE00
0FF1FE00
ENDCHAR
STARTCHAR plus
ENCODING 43
SWIDTH 999 0
DWIDTH 27 0
BBX 23 19 0 4
BITMAP
00FE00
00FE00
00FE00
00FE00
00FE00
00FE00
00FE00
00FE00
FFFFFE
FFFFFE
FFFFFE
00FE00
00FE00
00FE00
00FE00
00FE00
00FE00
00FE00
00FE00
ENDCHAR
STARTCHAR comma
ENCODING 44
SWIDTH 571 0
DWIDTH 15 0
BBX 12 8 0 0
BITMAP
0FF0
0FF0
0FF0
0FF0
FFF0
FFF0
FFF0
FFF0
ENDCHAR
STARTCHAR hyphen
ENCODING 45
SWIDTH 999 0
DWIDTH 27 0
BBX 23 3 0 12
BITMAP
FFFFFE
FFFFFE
FFFFFE
ENDCHAR
STARTCHAR period
ENCODING 46
SWIDTH 428 0
DWIDTH 12 0
BBX 8 8 0 0
BITMAP
FF
FF
FF
FF
FF
FF
FF
FF
ENDCHAR
STARTCHAR slash
ENCODING 47
SWIDTH 999 0
DWIDTH 27 0
BBX 23 27 0 0
BITMAP
0001FE
0001FE
0001FE
0001FE
0001FE
0001FE
0001FE
0001FE
000FE0
000FE0
000FE0
000FE0
00FE00
00FE00
00FE00
0FF000
0FF000
0FF000
0FF000
FF0000
FF0000
FF0000
FF0000
FF0000
FF0000
FF0000
FF0000
ENDCHAR
STARTCHAR zero
ENCODING 48
SWIDTH 999 0
DWIDTH 27 0
BBX 23 27 0 0
BITMAP
0FFFE0
0FFFE0
0FFFE0
0FFFE0
FF01FE
FF01FE
FF01FE
FF01FE
FF01FE
FF01FE
FF01FE
FF01FE
FF01FE
FF01FE
FF01FE
FF01FE
FF01FE
FF01FE
FF01FE
FF01FE
FF01FE
FF01FE
FF01FE
0FFFE0
0FFFE0
0FFFE0
0FFFE0
ENDCHAR
STARTCHAR one
ENCODING 49
SWIDTH 714 0
DWIDTH 19 0
BBX 15 27 0 0
BITMAP
0FF0
0FF0
0FF0
0FF0
FFF0
FFF0
FFF0
FFF0
0FF0
0FF0
0FF0
0FF0
0FF0
0FF0
0FF0
0FF0
0FF0
0FF0
0FF0
0FF0
0FF0
0FF0
0FF0
FFFE
FFFE
FFFE
FFFE
ENDCHAR
STARTCHAR two
ENCODING 50
SWIDTH 999 0
DWIDTH 27 0
BBX 23 27 0 0
BITMAP
0FFFE0
0FFFE0
0FFFE0
0FFFE0
FF01FE
FF01FE
FF01FE
FF01FE
0001FE
0001FE
0001FE
0001FE
0FFFE0
0FFFE0
0FFFE0
FF0000
FF0000
FF0000
FF0000
FF0000
FF0000
FF0000
FF0000
FFFFFE
FFFFFE
FFFFFE
FFFFFE
ENDCHAR
STARTCHAR three
ENCODING 51
SWIDTH 999 0
DWIDTH 27 0
BBX 23 27 0 0
BITMAP
0FFFE0
0FFFE0
0FFFE0
0FFFE0
FF01FE
FF01FE
FF01FE
FF01FE
0001FE
0001FE
0001FE
0001FE
00FFE0
00FFE0
00FFE0
0001FE
0001FE
0001FE
0001FE
FF01FE
FF01FE
FF01FE
FF01FE
0FFFE0
0FFFE0
0FFFE0
0FFFE0
ENDCHAR
STARTCHAR four
ENCODING 52
SWIDTH 999 0
DWIDTH 27 0
BBX 23 27 0 0
BITMAP
000FE0
000FE0
000FE0
000FE0
00FFE0
00FFE0
00FFE0
00FFE0
0F0FE0
0F0FE0
0F0FE0
0F0FE0
FF0FE0
FF0FE0
FF0FE0
FF0FE0
FF0FE0
FF0FE0
FF0FE0
FFFFFE
FFFFFE
FFFFFE
FFFFFE
000FE0
000FE0
000FE0
000FE0
ENDCHAR
STARTCHAR five
ENCODING 53
SWIDTH 999 0
DWIDTH 27 0
BBX 23 27 0 0
BITMAP
FFFFFE
FFFFFE
FFFFFE
FFFFFE
FF0000
FF0000
FF0000
FF0000
FFFFE0
FFFFE0
FFFFE0
FFFFE0
0001FE
0001FE
0001FE
0001FE
0001FE
0001FE
0001FE
FF01FE
FF01FE
FF01FE
FF01FE
0FFFE0
0FFFE0
0FFFE0
0FFFE0
ENDCHAR
STARTCHAR six
ENCODING 54
SWIDTH 999 0
DWIDTH 27 0
BBX 23 27 0 0
BITMAP
0FFFE0
0FFFE0
0FFFE0
0FFFE0
FF01FE
FF01FE
FF01FE
FF01FE
FF0000
FF0000
FF0000
FF0000
FFFFE0
FFFFE0
FFFFE0
FF01FE
FF01FE
FF01FE
FF01FE
FF01FE
FF01FE
FF01FE
FF01FE
0FFFE0
0FFFE0
0FFFE0
0FFFE0
ENDCHAR
STARTCHAR seven
ENCODING 55
SWIDTH 999 0
DWIDTH 27 0
BBX 23 27 0 0
BITMAP
FFFFFE
FFFFFE
FFFFFE
FFFFFE
0001FE
0001FE
0001FE
0001FE
0001FE
0001FE
0001FE
0001FE
000FE0
000FE0
000FE0
000FE0
000FE0
000FE0
000FE0
00FE00
00FE00
00FE00
00FE00
00FE00
00FE00
00FE00
00FE00
ENDCHAR
STARTCHAR eight
ENCODING 56
SWIDTH 999 0
DWIDTH 27 0
BBX 23 27 0 0
BITMAP
0FFFE0
0FFFE0
0FFFE0
0FFFE0
FF01FE
FF01FE
FF01FE
FF01FE
FF01FE
FF01FE
FF01FE
FF01FE
0FFFE0
0FFFE0
0FFFE0
FF01FE
FF01FE
FF01FE
FF01FE
FF01FE
FF01FE
FF01FE
FF01FE
0FFFE0
0FFFE0
0FFFE0
0FFFE0
ENDCHAR
STARTCHAR nine
ENCODING 57
SWIDTH 999 0
DWIDTH 27 0
BBX 23 27 0 0
BITMAP
0FFFE0
0FFFE0
0FFFE0
0FFFE0
FF01FE
FF01FE
FF01FE
FF01FE
FF01FE
FF01FE
FF01FE
FF01FE
0FFFFE
0FFFFE
0FFFFE
0001FE
0001FE
0001FE
0001FE
FF01FE
FF01FE
FF01FE
FF01FE
0FFFE0
0FFFE0
0FFFE0
0FFFE0
ENDCHAR
STARTCHAR colon
ENCODING 58
SWIDTH 428 0
DWIDTH 12 0
BBX 8 23 0 0
BITMAP
FF
FF
FF
FF
FF
FF
FF
FF
00
00
00
00
00
00
00
FF
FF
FF
FF
FF
FF
FF
FF
ENDCHAR
STARTCHAR semicolon
ENCODING 59
SWIDTH 571 0
DWIDTH 15 0
BBX 12 23 0 0
BITMAP
0FF0
0FF0
0FF0
0FF0
0FF0
0FF0
0FF0
0FF0
0000
0000
0000
0000
0000
0000
0000
0FF0
0FF0
0FF0
0FF0
FFF0
FFF0
FFF0
FFF0
ENDCHAR
STARTCHAR less
ENCODING 60
SWIDTH 856 0
DWIDTH 23 0
BBX 19 27 0 0
BITMAP
000FE0
000FE0
000FE0
000FE0
00FE00
00FE00
00FE00
00FE00
0FF000
0FF000
0FF000
0FF000
FF0000
FF0000
FF0000
0FF000
0FF000
0FF000
0FF000
00FE00
00FE00
00FE00
00FE00
000FE0
000FE0
000FE0
000FE0
ENDCHAR
STARTCHAR equal
ENCODING 61
SWIDTH 999 0
DWIDTH 27 0
BBX 23 11 0 8
BITMAP
FFFFFE
FFFFFE
FFFFFE
FFFFFE
000000
000000
000000
FFFFFE
FFFFFE
FFFFFE
FFFFFE
ENDCHAR
STARTCHAR greater
ENCODING 62
SWIDTH 856 0
DWIDTH 23 0
BBX 19 27 0 0
BITMAP
FF0000
FF0000
FF0000
FF0000
0FF000
0FF000
0FF000
0FF000
00FE00
00FE00
00FE00
00FE00
000FE0
000FE0
000FE0
00FE00
00FE00
00FE00
00FE00
0FF000
0FF000
0FF000
0FF000
FF0000
FF0000
FF0000
FF0000
ENDCHAR
STARTCHAR question
ENCODING 63
SWIDTH 1142 0
DWIDTH 31 0
BBX 27 27 0 0
BITMAP
0FFFFE00
0FFFFE00
0FFFFE00
0FFFFE00
FF001FE0
FF001FE0
FF001FE0
FF001FE0
00001FE0
00001FE0
00001FE0
00001FE0
00FFFE00
00FFFE00
00FFFE00
00FE0000
00FE0000
00FE0000
00FE0000
00000000
00000000
00000000
00000000
00FE0000
00FE0000
00FE0000
00FE0000
ENDCHAR
STARTCHAR at
ENCODING 64
SWIDTH 1142 0
DWIDTH 31 0
BBX 27 27 0 0
BITMAP
0FFFFE00
0FFFFE00
0FFFFE00
0FFFFE00
FF001FE0
FF001FE0
FF001FE0
FF001FE0
FF001FE0
FF001FE0
FF001FE0
FF001FE0
FF001FE0
FF001FE0
FF001FE0
FF0FFE00
FF0FFE00
FF0FFE00
FF0FFE00
FF000000
FF000000
FF000000
FF000000
0FFFFE00
0FFFFE00
0FFFFE00
0FFFFE00
ENDCHAR
STARTCHAR A
ENCODING 65
SWIDTH 1142 0
DWIDTH 31 0
BBX 27 27 0 0
BITMAP
00FFE000
00FFE000
00FFE000
00FFE000
0FF1FE00
0FF1FE00
0FF1FE00
0FF1FE00
FF001FE0
FF001FE0
FF001FE0
FF001FE0
FF001FE0
FF001FE0
FF001FE0
FFFFFFE0
FFFFFFE0
FFFFFFE0
FFFFFFE0
FF001FE0
FF001FE0
FF001FE0
FF001FE0
FF001FE0
FF001FE0
FF001FE0
FF001FE0
ENDCHAR
STARTCHAR B
ENCODING 66
SWIDTH 1142 0
DWIDTH 31 0
BBX 27 27 0 0
BITMAP
FFFFE000
FFFFE000
FFFFE000
FFFFE000
FF01FE00
FF01FE00
FF01FE00
FF01FE00
FF01FE00
FF01FE00
FF01FE00
FF01FE00
FFFFFE00
FFFFFE00
FFFFFE00
FF001FE0
FF001FE0
FF001FE0
FF001FE0
FF001FE0
FF001FE0
FF001FE0
FF001FE0
FFFFFE00
FFFFFE00
FFFFFE00
FFFFFE00
ENDCHAR
STARTCHAR C
ENCODING 67
SWIDTH 1142 0
DWIDTH 31 0
BBX 27 27 0 0
BITMAP
0FFFFE00
0FFFFE00
0FFFFE00
0FFFFE00
FF001FE0
FF001FE0
FF001FE0
FF001FE0
FF000000
FF000000
FF000000
FF000000
FF000000
FF000000
FF000000
FF000000
FF000000
FF000000
FF000000
FF001FE0
FF001FE0
FF001FE0
FF001FE0
0FFFFE00
0FFFFE00
0FFFFE00
0FFFFE00
ENDCHAR
STARTCHAR D
ENCODING 68
SWIDTH 1142 0
DWIDTH 31 0
BBX 27 27 0 0
BITMAP
FFFFFE00
FFFFFE00
FFFFFE00
FFFFFE00
FF001FE0
FF001FE0
FF001FE0
FF001FE0
FF001FE0
FF001FE0
FF001FE0
FF001FE0
FF001FE0
FF001FE0
FF001FE0
FF001FE0
FF001FE0
FF001FE0
FF001FE0
FF001FE0
FF001FE0
FF001FE0
FF001FE0
FFFFFE00
FFFFFE00
FFFFFE00
FFFFFE00
ENDCHAR
STARTCHAR E
ENCODING 69
SWIDTH 1142 0
DWIDTH 31 0
BBX 27 27 0 0
BITMAP
FFFFFFE0
FFFFFFE0
FFFFFFE0
FFFFFFE0
FF000000
FF000000
FF000000
FF000000
FF000000
FF000000
FF000000
FF000000
FFFFFE00
FFFFFE00
FFFFFE00
FF000000
FF000000
FF000000
FF000000
FF000000
FF000000
FF000000
FF000000
FFFFFFE0
FFFFFFE0
FFFFFFE0
FFFFFFE0
ENDCHAR
STARTCHAR F
ENCODING 70
SWIDTH 1142 0
DWIDTH 31 0
BBX 27 27 0 0
BITMAP
FFFFFFE0
FFFFFFE0
FFFFFFE0
FFFFFFE0
FF000000
FF000000
FF000000
FF000000
FF000000
FF000000
FF000000
FF000000
FFFFFE00
FFFFFE00
FFFFFE00
FF000000
FF000000
FF000000
FF000000
FF000000
FF000000
FF000000
FF000000
FF000000
FF000000
FF000000
FF000000
ENDCHAR
STARTCHAR G
ENCODING 71
SWIDTH 1142 0
DWIDTH 31 0
BBX 27 27 0 0
BITMAP
0FFFFE00
0FFFFE00
0FFFFE00
0FFFFE00
FF001FE0
FF001FE0
FF001FE0
FF001FE0
FF000000
FF000000
FF000000
FF000000
FF0FFFE0
FF0FFFE0
FF0FFFE0
FF001FE0
FF001FE0
FF001FE0
FF001FE0
FF001FE0
FF001FE0
FF001FE0
FF001FE0
0FFFFE00
0FFFFE00
0FFFFE00
0FFFFE00
ENDCHAR
STARTCHAR H
ENCODING 72
SWIDTH 1142 0
DWIDTH 31 0
BBX 27 27 0 0
BITMAP
FF001FE0
FF001FE0
FF001FE0
FF001FE0
FF001FE0
FF001FE0
FF001FE0
FF001FE0
FF001FE0
FF001FE0
FF001FE0
FF001FE0
FFFFFFE0
FFFFFFE0
FFFFFFE0
FF001FE0
FF001FE0
FF001FE0
FF001FE0
FF001FE0
FF001FE0
FF001FE0
FF001FE0
FF001FE0
FF001FE0
FF001FE0
FF001FE0
ENDCHAR
STARTCHAR I
ENCODING 73
SWIDTH 714 0
DWIDTH 19 0
BBX 15 27 0 0
BITMAP
FFFE
FFFE
FFFE
FFFE
0FF0
0FF0
0FF0
0FF0
0FF0
0FF0
0FF0
0FF0
0FF0
0FF0
0FF0
0FF0
0FF0
0FF0
0FF0
0FF0
0FF0
0FF0
0FF0
FFFE
FFFE
FFFE
FFFE
ENDCHAR
STARTCHAR J
ENCODING 74
SWIDTH 1142 0
DWIDTH 31 0
BBX 27 27 0 0
BITMAP
FFFFFFE0
FFFFFFE0
FFFFFFE0
FFFFFFE0
00001FE0
00001FE0
00001FE0
00001FE0
00001FE0
00001FE0
00001FE0
00001FE0
00001FE0
00001FE0
00001FE0
00001FE0
00001FE0
00001FE0
00001FE0
FF001FE0
FF001FE0
FF001FE0
FF001FE0
0FFFFE00
0FFFFE00
0FFFFE00
0FFFFE00
ENDCHAR
STARTCHAR K
ENCODING 75
SWIDTH 1142 0
DWIDTH 31 0
BBX 27 27 0 0
BITMAP
FF001FE0
FF001FE0
FF001FE0
FF001FE0
FF001FE0
FF001FE0
FF001FE0
FF001FE0
FF001FE0
FF001FE0
FF001FE0
FF001FE0
FFFFFE00
FFFFFE00
FFFFFE00
FF001FE0
FF001FE0
FF001FE0
FF001FE0
FF001FE0
FF001FE0
FF001FE0
FF001FE0
FF001FE0
FF001FE0
FF001FE0
FF001FE0
ENDCHAR
STARTCHAR L
ENCODING 76
SWIDTH 1142 0
DWIDTH 31 0
BBX 27 27 0 0
BITMAP
FF000000
FF000000
FF000000
FF000000
FF000000
FF000000
FF000000
FF000000
FF000000
FF000000
FF000000
FF000000
FF000000
FF000000
FF000000
FF000000
FF000000
FF000000
FF000000
FF000000
FF000000
FF000000
FF000000
FFFFFFE0
FFFFFFE0
FFFFFFE0
FFFFFFE0
ENDCHAR
STARTCHAR M
ENCODING 77
SWIDTH 1142 0
DWIDTH 31 0
BBX 27 27 0 0
BITMAP
F00001E0
F00001E0
F00001E0
F00001E0
FF001FE0
FF001FE0
FF001FE0
FF001FE0
FFF1FFE0
FFF1FFE0
FFF1FFE0
FFF1FFE0
FF0E1FE0
FF0E1FE0
FF0E1FE0
FF001FE0
FF001FE0
FF001FE0
FF001FE0
FF001FE0
FF001FE0
FF001FE0
FF001FE0
FF001FE0
FF001FE0
FF001FE0
FF001FE0
ENDCHAR
STARTCHAR N
ENCODING 78
SWIDTH 1142 0
DWIDTH 31 0
BBX 27 27 0 0
BITMAP
F0001FE0
F0001FE0
F0001FE0
F0001FE0
FF001FE0
FF001FE0
FF001FE0
FF001FE0
FFF01FE0
FFF01FE0
FFF01FE0
FFF01FE0
FF0E1FE0
FF0E1FE0
FF0E1FE0
FF01FFE0
FF01FFE0
FF01FFE0
FF01FFE0
FF001FE0
FF001FE0
FF001FE0
FF001FE0
FF001FE0
FF001FE0
FF001FE0
FF001FE0
ENDCHAR
STARTCHAR O
ENCODING 79
SWIDTH 1142 0
DWIDTH 31 0
BBX 27 27 0 0
BITMAP
0FFFFE00
0FFFFE00
0FFFFE00
0FFFFE00
FF001FE0
FF001FE0
FF001FE0
FF001FE0
FF001FE0
FF001FE0
FF001FE0
FF001FE0
FF001FE0
FF001FE0
FF001FE0
FF001FE0
FF001FE0
FF001FE0
FF001FE0
FF001FE0
FF001FE0
FF001FE0
FF001FE0
0FFFFE00
0FFFFE00
0FFFFE00
0FFFFE00
ENDCHAR
STARTCHAR P
ENCODING 80
SWIDTH 1142 0
DWIDTH 31 0
BBX 27 27 0 0
BITMAP
FFFFFE00
FFFFFE00
FFFFFE00
FFFFFE00
FF001FE0
FF001FE0
FF001FE0
FF001FE0
FF001FE0
FF001FE0
FF001FE0
FF001FE0
FF001FE0
FF001FE0
FF001FE0
FFFFFE00
FFFFFE00
FFFFFE00
FFFFFE00
FF000000
FF000000
FF000000
FF000000
FF000000
FF000000
FF000000
FF000000
ENDCHAR
STARTCHAR Q
ENCODING 81
SWIDTH 1142 0
DWIDTH 31 0
BBX 27 27 0 0
BITMAP
0FFFFE00
0FFFFE00
0FFFFE00
0FFFFE00
FF001FE0
FF001FE0
FF001FE0
FF001FE0
FF001FE0
FF001FE0
FF001FE0
FF001FE0
FF001FE0
FF001FE0
FF001FE0
FF01E1E0
FF01E1E0
FF01E1E0
FF01E1E0
FF001E00
FF001E00
FF001E00
FF001E00
0FFFE1E0
0FFFE1E0
0FFFE1E0
0FFFE1E0
ENDCHAR
STARTCHAR R
ENCODING 82
SWIDTH 1142 0
DWIDTH 31 0
BBX 27 27 0 0
BITMAP
FFFFFE00
FFFFFE00
FFFFFE00
FFFFFE00
FF001FE0
FF001FE0
FF001FE0
FF001FE0
FF001FE0
FF001FE0
FF001FE0
FF001FE0
FF001FE0
FF001FE0
FF001FE0
FFFFFE00
FFFFFE00
FFFFFE00
FFFFFE00
FF001FE0
FF001FE0
FF001FE0
FF001FE0
FF001FE0
FF001FE0
FF001FE0
FF001FE0
ENDCHAR
STARTCHAR S
ENCODING 83
SWIDTH 1142 0
DWIDTH 31 0
BBX 27 27 0 0
BITMAP
0FFFFE00
0FFFFE00
0FFFFE00
0FFFFE00
FF001FE0
FF001FE0
FF001FE0
FF001FE0
FF000000
FF000000
FF000000
FF000000
0FFFFE00
0FFFFE00
0FFFFE00
00001FE0
00001FE0
00001FE0
00001FE0
FF001FE0
FF001FE0
FF001FE0
FF001FE0
0FFFFE00
0FFFFE00
0FFFFE00
0FFFFE00
ENDCHAR
STARTCHAR T
ENCODING 84
SWIDTH 999 0
DWIDTH 27 0
BBX 23 27 0 0
BITMAP
FFFFFE
FFFFFE
FFFFFE
FFFFFE
00FE00
00FE00
00FE00
00FE00
00FE00
00FE00
00FE00
00FE00
00FE00
00FE00
00FE00
00FE00
00FE00
00FE00
00FE00
00FE00
00FE00
00FE00
00FE00
00FE00
00FE00
00FE00
00FE00
ENDCHAR
STARTCHAR U
ENCODING 85
SWIDTH 1142 0
DWIDTH 31 0
BBX 27 27 0 0
BITMAP
FF001FE0
FF001FE0
FF001FE0
FF001FE0
FF001FE0
FF001FE0
FF001FE0
FF001FE0
FF001FE0
FF001FE0
FF001FE0
FF001FE0
FF001FE0
FF001FE0
FF001FE0
FF001FE0
FF001FE0
FF001FE0
FF001FE0
FF001FE0
FF001FE0
FF001FE0
FF001FE0
0FFFFE00
0FFFFE00
0FFFFE00
0FFFFE00
ENDCHAR
STARTCHAR V
ENCODING 86
SWIDTH 1142 0
DWIDTH 31 0
BBX 27 27 0 0
BITMAP
FF001FE0
FF001FE0
FF001FE0
FF001FE0
FF001FE0
FF001FE0
FF001FE0
FF001FE0
FF001FE0
FF001FE0
FF001FE0
FF001FE0
FF001FE0
FF001FE0
FF001FE0
FF001FE0
FF001FE0
FF001FE0
FF001FE0
0FF1FE00
0FF1FE00
0FF1FE00
0FF1FE00
00FFE000
00FFE000
00FFE000
00FFE000
ENDCHAR
STARTCHAR W
ENCODING 87
SWIDTH 1142 0
DWIDTH 31 0
BBX 27 27 0 0
BITMAP
FF0E1FE0
FF0E1FE0
FF0E1FE0
FF0E1FE0
FF0E1FE0
FF0E1FE0
FF0E1FE0
FF0E1FE0
FF0E1FE0
FF0E1FE0
FF0E1FE0
FF0E1FE0
FF0E1FE0
FF0E1FE0
FF0E1FE0
FF0E1FE0
FF0E1FE0
FF0E1FE0
FF0E1FE0
FF0E1FE0
FF0E1FE0
FF0E1FE0
FF0E1FE0
0FFFFE00
0FFFFE00
0FFFFE00
0FFFFE00
ENDCHAR
STARTCHAR X
ENCODING 88
SWIDTH 1142 0
DWIDTH 31 0
BBX 27 27 0 0
BITMAP
FF001FE0
FF001FE0
FF001FE0
FF001FE0
FF001FE0
FF001FE0
FF001FE0
FF001FE0
0FF1FE00
0FF1FE00
0FF1FE00
0FF1FE00
00FFE000
00FFE000
00FFE000
0FF1FE00
0FF1FE00
0FF1FE00
0FF1FE00
FF001FE0
FF001FE0
FF001FE0
FF001FE0
FF001FE0
FF001FE0
FF001FE0
FF001FE0
ENDCHAR
STARTCHAR Y
ENCODING 89
SWIDTH 999 0
DWIDTH 27 0
BBX 23 27 0 0
BITMAP
FF01FE
FF01FE
FF01FE
FF01FE
FF01FE
FF01FE
FF01FE
FF01FE
FF01FE
FF01FE
FF01FE
FF01FE
0FFFE0
0FFFE0
0FFFE0
00FE00
00FE00
00FE00
00FE00
00FE00
00FE00
00FE00
00FE00
00FE00
00FE00
00FE00
00FE00
ENDCHAR
STARTCHAR Z
ENCODING 90
SWIDTH 999 0
DWIDTH 27 0
BBX 23 27 0 0
BITMAP
FFFFFE
FFFFFE
FFFFFE
FFFFFE
0001FE
0001FE
0001FE
0001FE
000FE0
000FE0
000FE0
000FE0
00FE00
00FE00
00FE00
0FF000
0FF000
0FF000
0FF000
FF0000
FF0000
FF0000
FF0000
FFFFFE
FFFFFE
FFFFFE
FFFFFE
ENDCHAR
STARTCHAR bracketleft
ENCODING 91
SWIDTH 571 0
DWIDTH 15 0
BBX 12 27 0 0
BITMAP
FFF0
FFF0
FFF0
FFF0
FF00
FF00
FF00
FF00
FF00
FF00
FF00
FF00
FF00
FF00
FF00
FF00
FF00
FF00
FF00
FF00
FF00
FF00
FF00
FFF0
FFF0
FFF0
FFF0
ENDCHAR
STARTCHAR backslash
ENCODING 92
SWIDTH 999 0
DWIDTH 27 0
BBX 23 27 0 0
BITMAP
FF0000
FF0000
FF0000
FF0000
FF0000
FF0000
FF0000
FF0000
0FF000
0FF000
0FF000
0FF000
00FE00
00FE00
00FE00
000FE0
000FE0
000FE0
000FE0
0001FE
0001FE
0001FE
0001FE
0001FE
0001FE
0001FE
0001FE
ENDCHAR
STARTCHAR bracketright
ENCODING 93
SWIDTH 571 0
DWIDTH 15 0
BBX 12 27 0 0
BITMAP
FFF0
FFF0
FFF0
FFF0
0FF0
0FF0
0FF0
0FF0
0FF0
0FF0
0FF0
0FF0
0FF0
0FF0
0FF0
0FF0
0FF0
0FF0
0FF0
0FF0
0FF0
0FF0
0FF0
FFF0
FFF0
FFF0
FFF0
ENDCHAR
STARTCHAR asciicircum
ENCODING 94
SWIDTH 1142 0
DWIDTH 31 0
BBX 27 19 0 8
BITMAP
000E0000
000E0000
000E0000
000E0000
00FFE000
00FFE000
00FFE000
00FFE000
0FF1FE00
0FF1FE00
0FF1FE00
0FF1FE00
FF001FE0
FF001FE0
FF001FE0
F00001E0
F00001E0
F00001E0
F00001E0
ENDCHAR
STARTCHAR underscore
ENCODING 95
SWIDTH 1142 0
DWIDTH 31 0
BBX 27 4 0 0
BITMAP
FFFFFFE0
FFFFFFE0
FFFFFFE0
FFFFFFE0
ENDCHAR
STARTCHAR grave
ENCODING 96
SWIDTH 571 0
DWIDTH 15 0
BBX 12 8 0 19
BITMAP
FF00
FF00
FF00
FF00
0FF0
0FF0
0FF0
0FF0
ENDCHAR
STARTCHAR a
ENCODING 97
SWIDTH 1142 0
DWIDTH 31 0
BBX 27 23 0 0
BITMAP
0FFFFE00
0FFFFE00
0FFFFE00
0FFFFE00
00001FE0
00001FE0
00001FE0
00001FE0
0FFFFFE0
0FFFFFE0
0FFFFFE0
FF001FE0
FF001FE0
FF001FE0
FF001FE0
FF001FE0
FF001FE0
FF001FE0
FF001FE0
0FFFE1E0
0FFFE1E0
0FFFE1E0
0FFFE1E0
ENDCHAR
STARTCHAR b
ENCODING 98
SWIDTH 1142 0
DWIDTH 31 0
BBX 27 27 0 0
BITMAP
FF000000
FF000000
FF000000
FF000000
FF000000
FF000000
FF000000
FF000000
FFFFFE00
FFFFFE00
FFFFFE00
FFFFFE00
FF001FE0
FF001FE0
FF001FE0
FF001FE0
FF001FE0
FF001FE0
FF001FE0
FF001FE0
FF001FE0
FF001FE0
FF001FE0
0FFFFE00
0FFFFE00
0FFFFE00
0FFFFE00
ENDCHAR
STARTCHAR c
ENCODING 99
SWIDTH 1142 0
DWIDTH 31 0
BBX 27 23 0 0
BITMAP
0FFFFE00
0FFFFE00
0FFFFE00
0FFFFE00
FF001FE0
FF001FE0
FF001FE0
FF001FE0
FF000000
FF000000
FF000000
FF000000
FF000000
FF000000
FF000000
FF001FE0
FF001FE0
FF001FE0
FF001FE0
0FFFFE00
0FFFFE00
0FFFFE00
0FFFFE00
ENDCHAR
STARTCHAR d
ENCODING 100
SWIDTH 1142 0
DWIDTH 31 0
BBX 27 27 0 0
BITMAP
00001FE0
00001FE0
00001FE0
00001FE0
00001FE0
00001FE0
00001FE0
00001FE0
0FFFFFE0
0FFFFFE0
0FFFFFE0
0FFFFFE0
FF001FE0
FF001FE0
FF001FE0
FF001FE0
FF001FE0
FF001FE0
FF001FE0
FF001FE0
FF001FE0
FF001FE0
FF001FE0
0FFFE1E0
0FFFE1E0
0FFFE1E0
0FFFE1E0
ENDCHAR
STARTCHAR e
ENCODING 101
SWIDTH 1142 0
DWIDTH 31 0
BBX 27 23 0 0
BITMAP
0FFFFE00
0FFFFE00
0FFFFE00
0FFFFE00
FF001FE0
FF001FE0
FF001FE0
FF001FE0
FF001FE0
FF001FE0
FF001FE0
FFFFFE00
FFFFFE00
FFFFFE00
FFFFFE00
FF000000
FF000000
FF000000
FF000000
0FFFFE00
0FFFFE00
0FFFFE00
0FFFFE00
ENDCHAR
STARTCHAR f
ENCODING 102
SWIDTH 1142 0
DWIDTH 31 0
BBX 27 23 0 0
BITMAP
00FFFE00
00FFFE00
00FFFE00
00FFFE00
0FF01FE0
0FF01FE0
0FF01FE0
0FF01FE0
0FF01FE0
0FF01FE0
0FF01FE0
0FF00000
0FF00000
0FF00000
0FF00000
FFFFE000
FFFFE000
FFFFE000
FFFFE000
0FF00000
0FF00000
0FF00000
0FF00000
ENDCHAR
STARTCHAR g
ENCODING 103
SWIDTH 1142 0
DWIDTH 31 0
BBX 27 23 0 0
BITMAP
0FFFFE00
0FFFFE00
0FFFFE00
0FFFFE00
FF001FE0
FF001FE0
FF001FE0
FF001FE0
FF001FE0
FF001FE0
FF001FE0
0FFFFFE0
0FFFFFE0
0FFFFFE0
0FFFFFE0
00001FE0
00001FE0
00001FE0
00001FE0
0FFFFE00
0FFFFE00
0FFFFE00
0FFFFE00
ENDCHAR
STARTCHAR h
ENCODING 104
SWIDTH 1142 0
DWIDTH 31 0
BBX 27 27 0 0
BITMAP
FF000000
FF000000
FF000000
FF000000
FF000000
FF000000
FF000000
FF000000
FF0FFE00
FF0FFE00
FF0FFE00
FF0FFE00
FFF01FE0
FFF01FE0
FFF01FE0
FF001FE0
FF001FE0
FF001FE0
FF001FE0
FF001FE0
FF001FE0
FF001FE0
FF001FE0
FF001FE0
FF001FE0
FF001FE0
FF001FE0
ENDCHAR
STARTCHAR i
ENCODING 105
SWIDTH 571 0
DWIDTH 15 0
BBX 12 27 0 0
BITMAP
FF00
FF00
FF00
FF00
0000
0000
0000
0000
FF00
FF00
FF00
FF00
FF00
FF00
FF00
FF00
FF00
FF00
FF00
FF00
FF00
FF00
FF00
0FF0
0FF0
0FF0
0FF0
ENDCHAR
STARTCHAR j
ENCODING 106
SWIDTH 856 0
DWIDTH 23 0
BBX 19 27 0 0
BITMAP
000FE0
000FE0
000FE0
000FE0
000000
000000
000000
000000
000FE0
000FE0
000FE0
000FE0
000FE0
000FE0
000FE0
000FE0
000FE0
000FE0
000FE0
000FE0
000FE0
000FE0
000FE0
FFFE00
FFFE00
FFFE00
FFFE00
ENDCHAR
STARTCHAR k
ENCODING 107
SWIDTH 1142 0
DWIDTH 31 0
BBX 27 27 0 0
BITMAP
FF000000
FF000000
FF000000
FF000000
FF001FE0
FF001FE0
FF001FE0
FF001FE0
FF01FE00
FF01FE00
FF01FE00
FF01FE00
FFFFE000
FFFFE000
FFFFE000
FF01FE00
FF01FE00
FF01FE00
FF01FE00
FF001FE0
FF001FE0
FF001FE0
FF001FE0
FF001FE0
FF001FE0
FF001FE0
FF001FE0
ENDCHAR
STARTCHAR l
ENCODING 108
SWIDTH 428 0
DWIDTH 12 0
BBX 8 27 0 0
BITMAP
FF
FF
FF
FF
FF
FF
FF
FF
FF
FF
FF
FF
FF
FF
FF
FF
FF
FF
FF
FF
FF
FF
FF
FF
FF
FF
FF
ENDCHAR
STARTCHAR m
ENCODING 109
SWIDTH 1142 0
DWIDTH 31 0
BBX 27 23 0 0
BITMAP
FFFFFE00
FFFFFE00
FFFFFE00
FFFFFE00
FF0E1FE0
FF0E1FE0
FF0E1FE0
FF0E1FE0
FF0E1FE0
FF0E1FE0
FF0E1FE0
FF0E1FE0
FF0E1FE0
FF0E1FE0
FF0E1FE0
FF0E1FE0
FF0E1FE0
FF0E1FE0
FF0E1FE0
FF0E1FE0
FF0E1FE0
FF0E1FE0
FF0E1FE0
ENDCHAR
STARTCHAR n
ENCODING 110
SWIDTH 1142 0
DWIDTH 31 0
BBX 27 23 0 0
BITMAP
FFFFFE00
FFFFFE00
FFFFFE00
FFFFFE00
FF001FE0
FF001FE0
FF001FE0
FF001FE0
FF001FE0
FF001FE0
FF001FE0
FF001FE0
FF001FE0
FF001FE0
FF001FE0
FF001FE0
FF001FE0
FF001FE0
FF001FE0
FF001FE0
FF001FE0
FF001FE0
FF001FE0
ENDCHAR
STARTCHAR o
ENCODING 111
SWIDTH 1142 0
DWIDTH 31 0
BBX 27 23 0 0
BITMAP
0FFFFE00
0FFFFE00
0FFFFE00
0FFFFE00
FF001FE0
FF001FE0
FF001FE0
FF001FE0
FF001FE0
FF001FE0
FF001FE0
FF001FE0
FF001FE0
FF001FE0
FF001FE0
FF001FE0
FF001FE0
FF001FE0
FF001FE0
0FFFFE00
0FFFFE00
0FFFFE00
0FFFFE00
ENDCHAR
STARTCHAR p
ENCODING 112
SWIDTH 1142 0
DWIDTH 31 0
BBX 27 23 0 0
BITMAP
0FFFFE00
0FFFFE00
0FFFFE00
0FFFFE00
FF001FE0
FF001FE0
FF001FE0
FF001FE0
FF001FE0
FF001FE0
FF001FE0
FF001FE0
FF001FE0
FF001FE0
FF001FE0
FFFFFE00
FFFFFE00
FFFFFE00
FFFFFE00
FF000000
FF000000
FF000000
FF000000
ENDCHAR
STARTCHAR q
ENCODING 113
SWIDTH 1142 0
DWIDTH 31 0
BBX 27 23 0 0
BITMAP
0FFFFE00
0FFFFE00
0FFFFE00
0FFFFE00
FF001FE0
FF001FE0
FF001FE0
FF001FE0
FF001FE0
FF001FE0
FF001FE0
FF001FE0
FF001FE0
FF001FE0
FF001FE0
0FFFFFE0
0FFFFFE0
0FFFFFE0
0FFFFFE0
00001FE0
00001FE0
00001FE0
00001FE0
ENDCHAR
STARTCHAR r
ENCODING 114
SWIDTH 1142 0
DWIDTH 31 0
BBX 27 23 0 0
BITMAP
FF0FFE00
FF0FFE00
FF0FFE00
FF0FFE00
0FF01FE0
0FF01FE0
0FF01FE0
0FF01FE0
0FF01FE0
0FF01FE0
0FF01FE0
0FF00000
0FF00000
0FF00000
0FF00000
0FF00000
0FF00000
0FF00000
0FF00000
0FF00000
0FF00000
0FF00000
0FF00000
ENDCHAR
STARTCHAR s
ENCODING 115
SWIDTH 1142 0
DWIDTH 31 0
BBX 27 23 0 0
BITMAP
0FFFFE00
0FFFFE00
0FFFFE00
0FFFFE00
FF001FE0
FF001FE0
FF001FE0
FF001FE0
FFFE0000
FFFE0000
FFFE0000
000FFFE0
000FFFE0
000FFFE0
000FFFE0
FF001FE0
FF001FE0
FF001FE0
FF001FE0
0FFFFE00
0FFFFE00
0FFFFE00
0FFFFE00
ENDCHAR
STARTCHAR t
ENCODING 116
SWIDTH 1142 0
DWIDTH 31 0
BBX 27 27 0 0
BITMAP
0FF00000
0FF00000
0FF00000
0FF00000
0FF00000
0FF00000
0FF00000
0FF00000
FFFFFFE0
FFFFFFE0
FFFFFFE0
FFFFFFE0
0FF00000
0FF00000
0FF00000
0FF01FE0
0FF01FE0
0FF01FE0
0FF01FE0
0FF01FE0
0FF01FE0
0FF01FE0
0FF01FE0
00FFFE00
00FFFE00
00FFFE00
00FFFE00
ENDCHAR
STARTCHAR u
ENCODING 117
SWIDTH 1142 0
DWIDTH 31 0
BBX 27 23 0 0
BITMAP
FF001FE0
FF001FE0
FF001FE0
FF001FE0
FF001FE0
FF001FE0
FF001FE0
FF001FE0
FF001FE0
FF001FE0
FF001FE0
FF001FE0
FF001FE0
FF001FE0
FF001FE0
FF001FE0
FF001FE0
FF001FE0
FF001FE0
0FFFFE00
0FFFFE00
0FFFFE00
0FFFFE00
ENDCHAR
STARTCHAR v
ENCODING 118
SWIDTH 1142 0
DWIDTH 31 0
BBX 27 23 0 0
BITMAP
FF001FE0
FF001FE0
FF001FE0
FF001FE0
FF001FE0
FF001FE0
FF001FE0
FF001FE0
FF001FE0
FF001FE0
FF001FE0
FF001FE0
FF001FE0
FF001FE0
FF001FE0
0FF1FE00
0FF1FE00
0FF1FE00
0FF1FE00
00FFE000
00FFE000
00FFE000
00FFE000
ENDCHAR
STARTCHAR w
ENCODING 119
SWIDTH 1142 0
DWIDTH 31 0
BBX 27 23 0 0
BITMAP
FF0E1FE0
FF0E1FE0
FF0E1FE0
FF0E1FE0
FF0E1FE0
FF0E1FE0
FF0E1FE0
FF0E1FE0
FF0E1FE0
FF0E1FE0
FF0E1FE0
FF0E1FE0
FF0E1FE0
FF0E1FE0
FF0E1FE0
FF0E1FE0
FF0E1FE0
FF0E1FE0
FF0E1FE0
0FFFFE00
0FFFFE00
0FFFFE00
0FFFFE00
ENDCHAR
STARTCHAR x
ENCODING 120
SWIDTH 1142 0
DWIDTH 31 0
BBX 27 23 0 0
BITMAP
FF001FE0
FF001FE0
FF001FE0
FF001FE0
0FF1FE00
0FF1FE00
0FF1FE00
0FF1FE00
00FFE000
00FFE000
00FFE000
00FFE000
00FFE000
00FFE000
00FFE000
0FF1FE00
0FF1FE00
0FF1FE00
0FF1FE00
FF001FE0
FF001FE0
FF001FE0
FF001FE0
ENDCHAR
STARTCHAR y
ENCODING 121
SWIDTH 1142 0
DWIDTH 31 0
BBX 27 23 0 0
BITMAP
FF001FE0
FF001FE0
FF001FE0
FF001FE0
FF001FE0
FF001FE0
FF001FE0
FF001FE0
FF001FE0
FF001FE0
FF001FE0
0FFFFFE0
0FFFFFE0
0FFFFFE0
0FFFFFE0
00001FE0
00001FE0
00001FE0
00001FE0
0FFFFE00
0FFFFE00
0FFFFE00
0FFFFE00
ENDCHAR
STARTCHAR z
ENCODING 122
SWIDTH 1142 0
DWIDTH 31 0
BBX 27 23 0 0
BITMAP
FFFFFFE0
FFFFFFE0
FFFFFFE0
FFFFFFE0
0001FE00
0001FE00
0001FE00
0001FE00
000FE000
000FE000
000FE000
00FE0000
00FE0000
00FE0000
00FE0000
0FF00000
0FF00000
0FF00000
0FF00000
FFFFFFE0
FFFFFFE0
FFFFFFE0
FFFFFFE0
ENDCHAR
STARTCHAR braceleft
ENCODING 123
SWIDTH 714 0
DWIDTH 19 0
BBX 15 27 0 0
BITMAP
00FE
00FE
00FE
00FE
0FF0
0FF0
0FF0
0FF0
0FF0
0FF0
0FF0
0FF0
FF00
FF00
FF00
0FF0
0FF0
0FF0
0FF0
0FF0
0FF0
0FF0
0FF0
00FE
00FE
00FE
00FE
ENDCHAR
STARTCHAR bar
ENCODING 124
SWIDTH 428 0
DWIDTH 12 0
BBX 8 27 0 0
BITMAP
FF
FF
FF
FF
FF
FF
FF
FF
FF
FF
FF
FF
FF
FF
FF
FF
FF
FF
FF
FF
FF
FF
FF
FF
FF
FF
FF
ENDCHAR
STARTCHAR braceright
ENCODING 125
SWIDTH 714 0
DWIDTH 19 0
BBX 15 27 0 0
BITMAP
FF00
FF00
FF00
FF00
0FF0
0FF0
0FF0
0FF0
0FF0
0FF0
0FF0
0FF0
00FE
00FE
00FE
0FF0
0FF0
0FF0
0FF0
0FF0
0FF0
0FF0
0FF0
FF00
FF00
FF00
FF00
ENDCHAR
STARTCHAR asciitilde
ENCODING 126
SWIDTH 1142 0
DWIDTH 31 0
BBX 27 11 0 8
BITMAP
0FFE1FE0
0FFE1FE0
0FFE1FE0
0FFE1FE0
FF0E1FE0
FF0E1FE0
FF0E1FE0
FF0FFE00
FF0FFE00
FF0FFE00
FF0FFE00
ENDCHAR
STARTCHAR exclamdown
ENCODING 161
SWIDTH 428 0
DWIDTH 12 0
BBX 8 27 0 0
BITMAP
FF
FF
FF
FF
00
00
00
00
FF
FF
FF
FF
FF
FF
FF
FF
FF
FF
FF
FF
FF
FF
FF
FF
FF
FF
FF
ENDCHAR
STARTCHAR cent
ENCODING 162
SWIDTH 1142 0
DWIDTH 31 0
BBX 27 27 0 0
BITMAP
000E0000
000E0000
000E0000
000E0000
0FFFFE00
0FFFFE00
0FFFFE00
0FFFFE00
FF0E1FE0
FF0E1FE0
FF0E1FE0
FF0E1FE0
FF0E0000
FF0E0000
FF0E0000
FF0E1FE0
FF0E1FE0
FF0E1FE0
FF0E1FE0
0FFFFE00
0FFFFE00
0FFFFE00
0FFFFE00
000E0000
000E0000
000E0000
000E0000
ENDCHAR
STARTCHAR sterling
ENCODING 163
SWIDTH 1142 0
DWIDTH 31 0
BBX 27 27 0 0
BITMAP
00FFFE00
00FFFE00
00FFFE00
00FFFE00
0FF01FE0
0FF01FE0
0FF01FE0
0FF01FE0
0FF00000
0FF00000
0FF00000
0FF00000
FFFFFE00
FFFFFE00
FFFFFE00
0FF00000
0FF00000
0FF00000
0FF00000
0FF00000
0FF00000
0FF00000
0FF00000
0FFFFFE0
0FFFFFE0
0FFFFFE0
0FFFFFE0
ENDCHAR
STARTCHAR currency
ENCODING 164
SWIDTH 999 0
DWIDTH 27 0
BBX 19 19 4 4
BITMAP
F0E1E0
F0E1E0
F0E1E0
F0E1E0
0F1E00
0F1E00
0F1E00
0F1E00
FF1FE0
FF1FE0
FF1FE0
0F1E00
0F1E00
0F1E00
0F1E00
F0E1E0
F0E1E0
F0E1E0
F0E1E0
ENDCHAR
STARTCHAR yen
ENCODING 165
SWIDTH 999 0
DWIDTH 27 0
BBX 23 27 0 0
BITMAP
FF01FE
FF01FE
FF01FE
FF01FE
0FFFE0
0FFFE0
0FFFE0
0FFFE0
00FE00
00FE00
00FE00
00FE00
0FFFE0
0FFFE0
0FFFE0
00FE00
00FE00
00FE00
00FE00
0FFFE0
0FFFE0
0FFFE0
0FFFE0
00FE00
00FE00
00FE00
00FE00
ENDCHAR
STARTCHAR brokenbar
ENCODING 166
SWIDTH 428 0
DWIDTH 12 0
BBX 8 27 0 0
BITMAP
FF
FF
FF
FF
FF
FF
FF
FF
FF
FF
FF
FF
00
00
00
FF
FF
FF
FF
FF
FF
FF
FF
FF
FF
FF
FF
ENDCHAR
STARTCHAR section
ENCODING 167
SWIDTH 1142 0
DWIDTH 31 0
BBX 27 27 0 0
BITMAP
0FFFFE00
0FFFFE00
0FFFFE00
0FFFFE00
FF001FE0
FF001FE0
FF001FE0
FF001FE0
FFFFE000
FFFFE000
FFFFE000
FFFFE000
00F1FE00
00F1FE00
00F1FE00
00FFFFE0
00FFFFE0
00FFFFE0
00FFFFE0
FF001FE0
FF001FE0
FF001FE0
FF001FE0
0FFFFE00
0FFFFE00
0FFFFE00
0FFFFE00
ENDCHAR
STARTCHAR dieresis
ENCODING 168
SWIDTH 856 0
DWIDTH 23 0
BBX 19 4 0 23
BITMAP
FF0FE0
FF0FE0
FF0FE0
FF0FE0
ENDCHAR
STARTCHAR copyright
ENCODING 169
SWIDTH 1142 0
DWIDTH 31 0
BBX 27 27 0 0
BITMAP
0FFFFE00
0FFFFE00
0FFFFE00
0FFFFE00
F00001E0
F00001E0
F00001E0
F00001E0
F0FFE1E0
F0FFE1E0
F0FFE1E0
F0FFE1E0
F0F001E0
F0F001E0
F0F001E0
F0FFE1E0
F0FFE1E0
F0FFE1E0
F0FFE1E0
F00001E0
F00001E0
F00001E0
F00001E0
0FFFFE00
0FFFFE00
0FFFFE00
0FFFFE00
ENDCHAR
STARTCHAR ordfeminine
ENCODING 170
SWIDTH 1142 0
DWIDTH 31 0
BBX 27 19 0 8
BITMAP
0FFFFE00
0FFFFE00
0FFFFE00
0FFFFE00
00001FE0
00001FE0
00001FE0
00001FE0
0FFFFFE0
0FFFFFE0
0FFFFFE0
0FFFFFE0
FF001FE0
FF001FE0
FF001FE0
0FFFE1E0
0FFFE1E0
0FFFE1E0
0FFFE1E0
ENDCHAR
STARTCHAR guillemotleft
ENCODING 171
SWIDTH 1142 0
DWIDTH 31 0
BBX 27 19 0 4
BITMAP
00FE1FE0
00FE1FE0
00FE1FE0
00FE1FE0
0FF1FE00
0FF1FE00
0FF1FE00
0FF1FE00
FF0FE000
FF0FE000
FF0FE000
0FF1FE00
0FF1FE00
0FF1FE00
0FF1FE00
00FE1FE0
00FE1FE0
00FE1FE0
00FE1FE0
ENDCHAR
STARTCHAR logicalnot
ENCODING 172
SWIDTH 1142 0
DWIDTH 31 0
BBX 27 11 0 4
BITMAP
FFFFFFE0
FFFFFFE0
FFFFFFE0
00001FE0
00001FE0
00001FE0
00001FE0
00001FE0
00001FE0
00001FE0
00001FE0
ENDCHAR
STARTCHAR uni00AD
ENCODING 173
SWIDTH 1142 0
DWIDTH 31 0
BBX 27 3 0 12
BITMAP
FFFFFFE0
FFFFFFE0
FFFFFFE0
ENDCHAR
STARTCHAR registered
ENCODING 174
SWIDTH 1142 0
DWIDTH 31 0
BBX 27 27 0 0
BITMAP
0FFFFE00
0FFFFE00
0FFFFE00
0FFFFE00
F00001E0
F00001E0
F00001E0
F00001E0
F0FE01E0
F0FE01E0
F0FE01E0
F0FE01E0
F0F1E1E0
F0F1E1E0
F0F1E1E0
F0F001E0
F0F001E0
F0F001E0
F0F001E0
F00001E0
F00001E0
F00001E0
F00001E0
0FFFFE00
0FFFFE00
0FFFFE00
0FFFFE00
ENDCHAR
STARTCHAR macron
ENCODING 175
SWIDTH 1142 0
DWIDTH 31 0
BBX 27 4 0 23
BITMAP
FFFFFFE0
FFFFFFE0
FFFFFFE0
FFFFFFE0
ENDCHAR
STARTCHAR degree
ENCODING 176
SWIDTH 999 0
DWIDTH 27 0
BBX 23 19 0 8
BITMAP
0FFFE0
0FFFE0
0FFFE0
0FFFE0
FF01FE
FF01FE
FF01FE
FF01FE
FF01FE
FF01FE
FF01FE
FF01FE
FF01FE
FF01FE
FF01FE
0FFFE0
0FFFE0
0FFFE0
0FFFE0
ENDCHAR
STARTCHAR plusminus
ENCODING 177
SWIDTH 999 0
DWIDTH 27 0
BBX 23 23 0 0
BITMAP
00FE00
00FE00
00FE00
00FE00
00FE00
00FE00
00FE00
00FE00
FFFFFE
FFFFFE
FFFFFE
00FE00
00FE00
00FE00
00FE00
00FE00
00FE00
00FE00
00FE00
FFFFFE
FFFFFE
FFFFFE
FFFFFE
ENDCHAR
STARTCHAR uni00B2
ENCODING 178
SWIDTH 1142 0
DWIDTH 31 0
BBX 27 19 0 8
BITMAP
0FFFFE00
0FFFFE00
0FFFFE00
0FFFFE00
FF01FFE0
FF01FFE0
FF01FFE0
FF01FFE0
000FFE00
000FFE00
000FFE00
000FFE00
0FF00000
0FF00000
0FF00000
FFFFFFE0
FFFFFFE0
FFFFFFE0
FFFFFFE0
ENDCHAR
STARTCHAR uni00B3
ENCODING 179
SWIDTH 1142 0
DWIDTH 31 0
BBX 27 19 0 8
BITMAP
FFFFFE00
FFFFFE00
FFFFFE00
FFFFFE00
0001FFE0
0001FFE0
0001FFE0
0001FFE0
0FFFFE00
0FFFFE00
0FFFFE00
0FFFFE00
0001FFE0
0001FFE0
0001FFE0
FFFFFE00
FFFFFE00
FFFFFE00
FFFFFE00
ENDCHAR
STARTCHAR acute
ENCODING 180
SWIDTH 571 0
DWIDTH 15 0
BBX 12 8 0 19
BITMAP
0FF0
0FF0
0FF0
0FF0
FF00
FF00
FF00
FF00
ENDCHAR
STARTCHAR mu
ENCODING 181
SWIDTH 1142 0
DWIDTH 31 0
BBX 27 23 0 0
BITMAP
FF001FE0
FF001FE0
FF001FE0
FF001FE0
FF001FE0
FF001FE0
FF001FE0
FF001FE0
FF001FE0
FF001FE0
FF001FE0
FF001FE0
FF001FE0
FF001FE0
FF001FE0
FFFFE1E0
FFFFE1E0
FFFFE1E0
FFFFE1E0
FF000000
FF000000
FF000000
FF000000
ENDCHAR
STARTCHAR paragraph
ENCODING 182
SWIDTH 1142 0
DWIDTH 31 0
BBX 27 27 0 0
BITMAP
0FFFFFE0
0FFFFFE0
0FFFFFE0
0FFFFFE0
FFFE1FE0
FFFE1FE0
FFFE1FE0
FFFE1FE0
FFFE1FE0
FFFE1FE0
FFFE1FE0
FFFE1FE0
0FFE1FE0
0FFE1FE0
0FFE1FE0
00FE1FE0
00FE1FE0
00FE1FE0
00FE1FE0
00FE1FE0
00FE1FE0
00FE1FE0
00FE1FE0
00FE1FE0
00FE1FE0
00FE1FE0
00FE1FE0
ENDCHAR
STARTCHAR periodcentered
ENCODING 183
SWIDTH 428 0
DWIDTH 12 0
BBX 8 7 0 8
BITMAP
FF
FF
FF
FF
FF
FF
FF
ENDCHAR
STARTCHAR cedilla
ENCODING 184
SWIDTH 714 0
DWIDTH 19 0
BBX 3 4 12 0
BITMAP
E0
E0
E0
E0
ENDCHAR
STARTCHAR uni00B9
ENCODING 185
SWIDTH 714 0
DWIDTH 19 0
BBX 15 19 0 8
BITMAP
0FF0
0FF0
0FF0
0FF0
FFF0
FFF0
FFF0
FFF0
0FF0
0FF0
0FF0
0FF0
0FF0
0FF0
0FF0
FFFE
FFFE
FFFE
FFFE
ENDCHAR
STARTCHAR ordmasculine
ENCODING 186
SWIDTH 1142 0
DWIDTH 31 0
BBX 27 19 0 8
BITMAP
0FFFFE00
0FFFFE00
0FFFFE00
0FFFFE00
FF001FE0
FF001FE0
FF001FE0
FF001FE0
FF001FE0
FF001FE0
FF001FE0
FF001FE0
FF001FE0
FF001FE0
FF001FE0
0FFFFE00
0FFFFE00
0FFFFE00
0FFFFE00
ENDCHAR
STARTCHAR guillemotright
ENCODING 187
SWIDTH 1142 0
DWIDTH 31 0
BBX 27 19 0 4
BITMAP
FF0FE000
FF0FE000
FF0FE000
FF0FE000
0FF1FE00
0FF1FE00
0FF1FE00
0FF1FE00
00FE1FE0
00FE1FE0
00FE1FE0
0FF1FE00
0FF1FE00
0FF1FE00
0FF1FE00
FF0FE000
FF0FE000
FF0FE000
FF0FE000
ENDCHAR
STARTCHAR onequarter
ENCODING 188
SWIDTH 1142 0
DWIDTH 31 0
BBX 27 23 0 0
BITMAP
FF001FE0
FF001FE0
FF001FE0
FF001FE0
0F01FE00
0F01FE00
0F01FE00
0F01FE00
0F0E0000
0F0E0000
0F0E0000
00F1E1E0
00F1E1E0
00F1E1E0
00F1E1E0
0FF1FFE0
0FF1FFE0
0FF1FFE0
0FF1FFE0
FF0001E0
FF0001E0
FF0001E0
FF0001E0
ENDCHAR
STARTCHAR onehalf
ENCODING 189
SWIDTH 1142 0
DWIDTH 31 0
BBX 27 23 0 0
BITMAP
FF001FE0
FF001FE0
FF001FE0
FF001FE0
0F01FE00
0F01FE00
0F01FE00
0F01FE00
0F0E0000
0F0E0000
0F0E0000
00F1FFE0
00F1FFE0
00F1FFE0
00F1FFE0
0FF01E00
0FF01E00
0FF01E00
0FF01E00
FF01FFE0
FF01FFE0
FF01FFE0
FF01FFE0
ENDCHAR
STARTCHAR threequarters
ENCODING 190
SWIDTH 1142 0
DWIDTH 31 0
BBX 27 23 0 0
BITMAP
FFF01FE0
FFF01FE0
FFF01FE0
FFF01FE0
0FF1FE00
0FF1FE00
0FF1FE00
0FF1FE00
FFF00000
FFF00000
FFF00000
0001E1E0
0001E1E0
0001E1E0
0001E1E0
0FF1FFE0
0FF1FFE0
0FF1FFE0
0FF1FFE0
FF0001E0
FF0001E0
FF0001E0
FF0001E0
ENDCHAR
STARTCHAR questiondown
ENCODING 191
SWIDTH 1142 0
DWIDTH 31 0
BBX 27 27 0 0
BITMAP
000FE000
000FE000
000FE000
000FE000
00000000
00000000
00000000
00000000
000FE000
000FE000
000FE000
000FE000
0FFFE000
0FFFE000
0FFFE000
FF000000
FF000000
FF000000
FF000000
FF001FE0
FF001FE0
FF001FE0
FF001FE0
0FFFFE00
0FFFFE00
0FFFFE00
0FFFFE00
ENDCHAR
STARTCHAR Agrave
ENCODING 192
SWIDTH 1142 0
DWIDTH 31 0
BBX 27 27 0 0
BITMAP
0FF00000
0FF00000
0FF00000
0FF00000
00FE0000
00FE0000
00FE0000
00FE0000
00FFE000
00FFE000
00FFE000
00FFE000
0FF1FE00
0FF1FE00
0FF1FE00
FF001FE0
FF001FE0
FF001FE0
FF001FE0
FFFFFFE0
FFFFFFE0
FFFFFFE0
FFFFFFE0
FF001FE0
FF001FE0
FF001FE0
FF001FE0
ENDCHAR
STARTCHAR Aacute
ENCODING 193
SWIDTH 1142 0
DWIDTH 31 0
BBX 27 27 0 0
BITMAP
0001FE00
0001FE00
0001FE00
0001FE00
000FE000
000FE000
000FE000
000FE000
00FFE000
00FFE000
00FFE000
00FFE000
0FF1FE00
0FF1FE00
0FF1FE00
FF001FE0
FF001FE0
FF001FE0
FF001FE0
FFFFFFE0
FFFFFFE0
FFFFFFE0
FFFFFFE0
FF001FE0
FF001FE0
FF001FE0
FF001FE0
ENDCHAR
STARTCHAR Acircumflex
ENCODING 194
SWIDTH 1142 0
DWIDTH 31 0
BBX 27 27 0 0
BITMAP
000E0000
000E0000
000E0000
000E0000
00F1E000
00F1E000
00F1E000
00F1E000
00FFE000
00FFE000
00FFE000
00FFE000
0FF1FE00
0FF1FE00
0FF1FE00
FF001FE0
FF001FE0
FF001FE0
FF001FE0
FFFFFFE0
FFFFFFE0
FFFFFFE0
FFFFFFE0
FF001FE0
FF001FE0
FF001FE0
FF001FE0
ENDCHAR
STARTCHAR Atilde
ENCODING 195
SWIDTH 1142 0
DWIDTH 31 0
BBX 27 27 0 0
BITMAP
0FFE1FE0
0FFE1FE0
0FFE1FE0
0FFE1FE0
FF0FFE00
FF0FFE00
FF0FFE00
FF0FFE00
00FFE000
00FFE000
00FFE000
00FFE000
0FF1FE00
0FF1FE00
0FF1FE00
FF001FE0
FF001FE0
FF001FE0
FF001FE0
FFFFFFE0
FFFFFFE0
FFFFFFE0
FFFFFFE0
FF001FE0
FF001FE0
FF001FE0
FF001FE0
ENDCHAR
STARTCHAR Adieresis
ENCODING 196
SWIDTH 1142 0
DWIDTH 31 0
BBX 27 27 0 0
BITMAP
0FF1FE00
0FF1FE00
0FF1FE00
0FF1FE00
00000000
00000000
00000000
00000000
00FFE000
00FFE000
00FFE000
00FFE000
0FF1FE00
0FF1FE00
0FF1FE00
FF001FE0
FF001FE0
FF001FE0
FF001FE0
FFFFFFE0
FFFFFFE0
FFFFFFE0
FFFFFFE0
FF001FE0
FF001FE0
FF001FE0
FF001FE0
ENDCHAR
STARTCHAR Aring
ENCODING 197
SWIDTH 1142 0
DWIDTH 31 0
BBX 27 27 0 0
BITMAP
00FFE000
00FFE000
00FFE000
00FFE000
0FF1FE00
0FF1FE00
0FF1FE00
0FF1FE00
00FFE000
00FFE000
00FFE000
00FFE000
0FF1FE00
0FF1FE00
0FF1FE00
FF001FE0
FF001FE0
FF001FE0
FF001FE0
FFFFFFE0
FFFFFFE0
FFFFFFE0
FFFFFFE0
FF001FE0
FF001FE0
FF001FE0
FF001FE0
ENDCHAR
STARTCHAR AE
ENCODING 198
SWIDTH 1142 0
DWIDTH 31 0
BBX 27 27 0 0
BITMAP
00FFFFE0
00FFFFE0
00FFFFE0
00FFFFE0
0FFFE000
0FFFE000
0FFFE000
0FFFE000
FF0FE000
FF0FE000
FF0FE000
FF0FE000
FF0FFFE0
FF0FFFE0
FF0FFFE0
FFFFE000
FFFFE000
FFFFE000
FFFFE000
FF0FE000
FF0FE000
FF0FE000
FF0FE000
FF0FFFE0
FF0FFFE0
FF0FFFE0
FF0FFFE0
ENDCHAR
STARTCHAR Ccedilla
ENCODING 199
SWIDTH 1142 0
DWIDTH 31 0
BBX 27 23 0 0
BITMAP
0FFFFE00
0FFFFE00
0FFFFE00
0FFFFE00
FF001FE0
FF001FE0
FF001FE0
FF001FE0
FF000000
FF000000
FF000000
FF001FE0
FF001FE0
FF001FE0
FF001FE0
0FFFFE00
0FFFFE00
0FFFFE00
0FFFFE00
000E0000
000E0000
000E0000
000E0000
ENDCHAR
STARTCHAR Egrave
ENCODING 200
SWIDTH 1142 0
DWIDTH 31 0
BBX 27 27 0 0
BITMAP
0FF00000
0FF00000
0FF00000
0FF00000
00FE0000
00FE0000
00FE0000
00FE0000
FFFFFFE0
FFFFFFE0
FFFFFFE0
FFFFFFE0
FF000000
FF000000
FF000000
FFFFFE00
FFFFFE00
FFFFFE00
FFFFFE00
FF000000
FF000000
FF000000
FF000000
FFFFFFE0
FFFFFFE0
FFFFFFE0
FFFFFFE0
ENDCHAR
STARTCHAR Eacute
ENCODING 201
SWIDTH 1142 0
DWIDTH 31 0
BBX 27 27 0 0
BITMAP
0001FE00
0001FE00
0001FE00
0001FE00
000FE000
000FE000
000FE000
000FE000
FFFFFFE0
FFFFFFE0
FFFFFFE0
FFFFFFE0
FF000000
FF000000
FF000000
FFFFFE00
FFFFFE00
FFFFFE00
FFFFFE00
FF000000
FF000000
FF000000
FF000000
FFFFFFE0
FFFFFFE0
FFFFFFE0
FFFFFFE0
ENDCHAR
STARTCHAR Ecircumflex
ENCODING 202
SWIDTH 1142 0
DWIDTH 31 0
BBX 27 27 0 0
BITMAP
000E0000
000E0000
000E0000
000E0000
00F1E000
00F1E000
00F1E000
00F1E000
FFFFFFE0
FFFFFFE0
FFFFFFE0
FFFFFFE0
FF000000
FF000000
FF000000
FFFFFE00
FFFFFE00
FFFFFE00
FFFFFE00
FF000000
FF000000
FF000000
FF000000
FFFFFFE0
FFFFFFE0
FFFFFFE0
FFFFFFE0
ENDCHAR
STARTCHAR Edieresis
ENCODING 203
SWIDTH 1142 0
DWIDTH 31 0
BBX 27 27 0 0
BITMAP
0FF1FE00
0FF1FE00
0FF1FE00
0FF1FE00
00000000
00000000
00000000
00000000
FFFFFFE0
FFFFFFE0
FFFFFFE0
FFFFFFE0
FF000000
FF000000
FF000000
FFFFFE00
FFFFFE00
FFFFFE00
FFFFFE00
FF000000
FF000000
FF000000
FF000000
FFFFFFE0
FFFFFFE0
FFFFFFE0
FFFFFFE0
ENDCHAR
STARTCHAR Igrave
ENCODING 204
SWIDTH 714 0
DWIDTH 19 0
BBX 15 27 0 0
BITMAP
FF00
FF00
FF00
FF00
0FF0
0FF0
0FF0
0FF0
FFFE
FFFE
FFFE
FFFE
0FF0
0FF0
0FF0
0FF0
0FF0
0FF0
0FF0
0FF0
0FF0
0FF0
0FF0
FFFE
FFFE
FFFE
FFFE
ENDCHAR
STARTCHAR Iacute
ENCODING 205
SWIDTH 714 0
DWIDTH 19 0
BBX 15 27 0 0
BITMAP
00FE
00FE
00FE
00FE
0FF0
0FF0
0FF0
0FF0
FFFE
FFFE
FFFE
FFFE
0FF0
0FF0
0FF0
0FF0
0FF0
0FF0
0FF0
0FF0
0FF0
0FF0
0FF0
FFFE
FFFE
FFFE
FFFE
ENDCHAR
STARTCHAR Icircumflex
ENCODING 206
SWIDTH 714 0
DWIDTH 19 0
BBX 15 27 0 0
BITMAP
00F0
00F0
00F0
00F0
0F0E
0F0E
0F0E
0F0E
FFFE
FFFE
FFFE
FFFE
0FF0
0FF0
0FF0
0FF0
0FF0
0FF0
0FF0
0FF0
0FF0
0FF0
0FF0
FFFE
FFFE
FFFE
FFFE
ENDCHAR
STARTCHAR Idieresis
ENCODING 207
SWIDTH 999 0
DWIDTH 27 0
BBX 23 27 0 0
BITMAP
FF01FE
FF01FE
FF01FE
FF01FE
000000
000000
000000
000000
0FFFE0
0FFFE0
0FFFE0
0FFFE0
00FE00
00FE00
00FE00
00FE00
00FE00
00FE00
00FE00
00FE00
00FE00
00FE00
00FE00
0FFFE0
0FFFE0
0FFFE0
0FFFE0
ENDCHAR
STARTCHAR Eth
ENCODING 208
SWIDTH 1142 0
DWIDTH 31 0
BBX 27 27 0 0
BITMAP
0FFFFE00
0FFFFE00
0FFFFE00
0FFFFE00
0FF01FE0
0FF01FE0
0FF01FE0
0FF01FE0
0FF01FE0
0FF01FE0
0FF01FE0
0FF01FE0
FFFE1FE0
FFFE1FE0
FFFE1FE0
0FF01FE0
0FF01FE0
0FF01FE0
0FF01FE0
0FF01FE0
0FF01FE0
0FF01FE0
0FF01FE0
0FFFFE00
0FFFFE00
0FFFFE00
0FFFFE00
ENDCHAR
STARTCHAR Ntilde
ENCODING 209
SWIDTH 1142 0
DWIDTH 31 0
BBX 27 27 0 0
BITMAP
0FFE1FE0
0FFE1FE0
0FFE1FE0
0FFE1FE0
FF0FFE00
FF0FFE00
FF0FFE00
FF0FFE00
FF001FE0
FF001FE0
FF001FE0
FF001FE0
FFF01FE0
FFF01FE0
FFF01FE0
FF0E1FE0
FF0E1FE0
FF0E1FE0
FF0E1FE0
FF01FFE0
FF01FFE0
FF01FFE0
FF01FFE0
FF001FE0
FF001FE0
FF001FE0
FF001FE0
ENDCHAR
STARTCHAR Ograve
ENCODING 210
SWIDTH 1142 0
DWIDTH 31 0
BBX 27 27 0 0
BITMAP
0FF00000
0FF00000
0FF00000
0FF00000
00FE0000
00FE0000
00FE0000
00FE0000
0FFFFE00
0FFFFE00
0FFFFE00
0FFFFE00
FF001FE0
FF001FE0
FF001FE0
FF001FE0
FF001FE0
FF001FE0
FF001FE0
FF001FE0
FF001FE0
FF001FE0
FF001FE0
0FFFFE00
0FFFFE00
0FFFFE00
0FFFFE00
ENDCHAR
STARTCHAR Oacute
ENCODING 211
SWIDTH 1142 0
DWIDTH 31 0
BBX 27 27 0 0
BITMAP
0001FE00
0001FE00
0001FE00
0001FE00
000FE000
000FE000
000FE000
000FE000
0FFFFE00
0FFFFE00
0FFFFE00
0FFFFE00
FF001FE0
FF001FE0
FF001FE0
FF001FE0
FF001FE0
FF001FE0
FF001FE0
FF001FE0
FF001FE0
FF001FE0
FF001FE0
0FFFFE00
0FFFFE00
0FFFFE00
0FFFFE00
ENDCHAR
STARTCHAR Ocircumflex
ENCODING 212
SWIDTH 1142 0
DWIDTH 31 0
BBX 27 27 0 0
BITMAP
000E0000
000E0000
000E0000
000E0000
00F1E000
00F1E000
00F1E000
00F1E000
0FFFFE00
0FFFFE00
0FFFFE00
0FFFFE00
FF001FE0
FF001FE0
FF001FE0
FF001FE0
FF001FE0
FF001FE0
FF001FE0
FF001FE0
FF001FE0
FF001FE0
FF001FE0
0FFFFE00
0FFFFE00
0FFFFE00
0FFFFE00
ENDCHAR
STARTCHAR Otilde
ENCODING 213
SWIDTH 1142 0
DWIDTH 31 0
BBX 27 27 0 0
BITMAP
0FFE1FE0
0FFE1FE0
0FFE1FE0
0FFE1FE0
FF0FFE00
FF0FFE00
FF0FFE00
FF0FFE00
0FFFFE00
0FFFFE00
0FFFFE00
0FFFFE00
FF001FE0
FF001FE0
FF001FE0
FF001FE0
FF001FE0
FF001FE0
FF001FE0
FF001FE0
FF001FE0
FF001FE0
FF001FE0
0FFFFE00
0FFFFE00
0FFFFE00
0FFFFE00
ENDCHAR
STARTCHAR Odieresis
ENCODING 214
SWIDTH 1142 0
DWIDTH 31 0
BBX 27 27 0 0
BITMAP
0FF1FE00
0FF1FE00
0FF1FE00
0FF1FE00
00000000
00000000
00000000
00000000
0FFFFE00
0FFFFE00
0FFFFE00
0FFFFE00
FF001FE0
FF001FE0
FF001FE0
FF001FE0
FF001FE0
FF001FE0
FF001FE0
FF001FE0
FF001FE0
FF001FE0
FF001FE0
0FFFFE00
0FFFFE00
0FFFFE00
0FFFFE00
ENDCHAR
STARTCHAR multiply
ENCODING 215
SWIDTH 1142 0
DWIDTH 31 0
BBX 27 23 0 0
BITMAP
FF001FE0
FF001FE0
FF001FE0
FF001FE0
0FF1FE00
0FF1FE00
0FF1FE00
0FF1FE00
00FFE000
00FFE000
00FFE000
00FFE000
00FFE000
00FFE000
00FFE000
0FF1FE00
0FF1FE00
0FF1FE00
0FF1FE00
FF001FE0
FF001FE0
FF001FE0
FF001FE0
ENDCHAR
STARTCHAR Oslash
ENCODING 216
SWIDTH 1142 0
DWIDTH 31 0
BBX 27 27 0 0
BITMAP
0FFFE1E0
0FFFE1E0
0FFFE1E0
0FFFE1E0
FF001E00
FF001E00
FF001E00
FF001E00
FF01FFE0
FF01FFE0
FF01FFE0
FF01FFE0
FF0E1FE0
FF0E1FE0
FF0E1FE0
FFF01FE0
FFF01FE0
FFF01FE0
FFF01FE0
0F001FE0
0F001FE0
0F001FE0
0F001FE0
F0FFFE00
F0FFFE00
F0FFFE00
F0FFFE00
ENDCHAR
STARTCHAR Ugrave
ENCODING 217
SWIDTH 1142 0
DWIDTH 31 0
BBX 27 27 0 0
BITMAP
0FF00000
0FF00000
0FF00000
0FF00000
00FE0000
00FE0000
00FE0000
00FE0000
FF001FE0
FF001FE0
FF001FE0
FF001FE0
FF001FE0
FF001FE0
FF001FE0
FF001FE0
FF001FE0
FF001FE0
FF001FE0
FF001FE0
FF001FE0
FF001FE0
FF001FE0
0FFFFE00
0FFFFE00
0FFFFE00
0FFFFE00
ENDCHAR
STARTCHAR Uacute
ENCODING 218
SWIDTH 1142 0
DWIDTH 31 0
BBX 27 27 0 0
BITMAP
0001FE00
0001FE00
0001FE00
0001FE00
000FE000
000FE000
000FE000
000FE000
FF001FE0
FF001FE0
FF001FE0
FF001FE0
FF001FE0
FF001FE0
FF001FE0
FF001FE0
FF001FE0
FF001FE0
FF001FE0
FF001FE0
FF001FE0
FF001FE0
FF001FE0
0FFFFE00
0FFFFE00
0FFFFE00
0FFFFE00
ENDCHAR
STARTCHAR Ucircumflex
ENCODING 219
SWIDTH 1142 0
DWIDTH 31 0
BBX 27 27 0 0
BITMAP
000E0000
000E0000
000E0000
000E0000
00F1E000
00F1E000
00F1E000
00F1E000
FF001FE0
FF001FE0
FF001FE0
FF001FE0
FF001FE0
FF001FE0
FF001FE0
FF001FE0
FF001FE0
FF001FE0
FF001FE0
FF001FE0
FF001FE0
FF001FE0
FF001FE0
0FFFFE00
0FFFFE00
0FFFFE00
0FFFFE00
ENDCHAR
STARTCHAR Udieresis
ENCODING 220
SWIDTH 1142 0
DWIDTH 31 0
BBX 27 27 0 0
BITMAP
0FF1FE00
0FF1FE00
0FF1FE00
0FF1FE00
00000000
00000000
00000000
00000000
FF001FE0
FF001FE0
FF001FE0
FF001FE0
FF001FE0
FF001FE0
FF001FE0
FF001FE0
FF001FE0
FF001FE0
FF001FE0
FF001FE0
FF001FE0
FF001FE0
FF001FE0
0FFFFE00
0FFFFE00
0FFFFE00
0FFFFE00
ENDCHAR
STARTCHAR Yacute
ENCODING 221
SWIDTH 999 0
DWIDTH 27 0
BBX 23 27 0 0
BITMAP
000FE0
000FE0
000FE0
000FE0
00FE00
00FE00
00FE00
00FE00
FF01FE
FF01FE
FF01FE
FF01FE
FF01FE
FF01FE
FF01FE
0FFFE0
0FFFE0
0FFFE0
0FFFE0
00FE00
00FE00
00FE00
00FE00
00FE00
00FE00
00FE00
00FE00
ENDCHAR
STARTCHAR Thorn
ENCODING 222
SWIDTH 1142 0
DWIDTH 31 0
BBX 27 27 0 0
BITMAP
FF000000
FF000000
FF000000
FF000000
FFFFFE00
FFFFFE00
FFFFFE00
FFFFFE00
FF001FE0
FF001FE0
FF001FE0
FF001FE0
FF001FE0
FF001FE0
FF001FE0
FF001FE0
FF001FE0
FF001FE0
FF001FE0
FFFFFE00
FFFFFE00
FFFFFE00
FFFFFE00
FF000000
FF000000
FF000000
FF000000
ENDCHAR
STARTCHAR germandbls
ENCODING 223
SWIDTH 1142 0
DWIDTH 31 0
BBX 27 27 0 0
BITMAP
0FFFE000
0FFFE000
0FFFE000
0FFFE000
FF01FE00
FF01FE00
FF01FE00
FF01FE00
FF01FE00
FF01FE00
FF01FE00
FF01FE00
FF0FE000
FF0FE000
FF0FE000
FF001FE0
FF001FE0
FF001FE0
FF001FE0
FF001FE0
FF001FE0
FF001FE0
FF001FE0
FF0FFE00
FF0FFE00
FF0FFE00
FF0FFE00
ENDCHAR
STARTCHAR agrave
ENCODING 224
SWIDTH 1142 0
DWIDTH 31 0
BBX 27 27 0 0
BITMAP
00FE0000
00FE0000
00FE0000
00FE0000
000FE000
000FE000
000FE000
000FE000
0FFFFE00
0FFFFE00
0FFFFE00
0FFFFE00
00001FE0
00001FE0
00001FE0
0FFFFFE0
0FFFFFE0
0FFFFFE0
0FFFFFE0
FF001FE0
FF001FE0
FF001FE0
FF001FE0
0FFFE1E0
0FFFE1E0
0FFFE1E0
0FFFE1E0
ENDCHAR
STARTCHAR aacute
ENCODING 225
SWIDTH 1142 0
DWIDTH 31 0
BBX 27 27 0 0
BITMAP
000FE000
000FE000
000FE000
000FE000
00FE0000
00FE0000
00FE0000
00FE0000
0FFFFE00
0FFFFE00
0FFFFE00
0FFFFE00
00001FE0
00001FE0
00001FE0
0FFFFFE0
0FFFFFE0
0FFFFFE0
0FFFFFE0
FF001FE0
FF001FE0
FF001FE0
FF001FE0
0FFFE1E0
0FFFE1E0
0FFFE1E0
0FFFE1E0
ENDCHAR
STARTCHAR acircumflex
ENCODING 226
SWIDTH 1142 0
DWIDTH 31 0
BBX 27 27 0 0
BITMAP
000E0000
000E0000
000E0000
000E0000
00F1E000
00F1E000
00F1E000
00F1E000
0FFFFE00
0FFFFE00
0FFFFE00
0FFFFE00
00001FE0
00001FE0
00001FE0
0FFFFFE0
0FFFFFE0
0FFFFFE0
0FFFFFE0
FF001FE0
FF001FE0
FF001FE0
FF001FE0
0FFFE1E0
0FFFE1E0
0FFFE1E0
0FFFE1E0
ENDCHAR
STARTCHAR atilde
ENCODING 227
SWIDTH 1142 0
DWIDTH 31 0
BBX 27 27 0 0
BITMAP
0FFE1FE0
0FFE1FE0
0FFE1FE0
0FFE1FE0
FF0FFE00
FF0FFE00
FF0FFE00
FF0FFE00
0FFFFE00
0FFFFE00
0FFFFE00
0FFFFE00
00001FE0
00001FE0
00001FE0
0FFFFFE0
0FFFFFE0
0FFFFFE0
0FFFFFE0
FF001FE0
FF001FE0
FF001FE0
FF001FE0
0FFFE1E0
0FFFE1E0
0FFFE1E0
0FFFE1E0
ENDCHAR
STARTCHAR adieresis
ENCODING 228
SWIDTH 1142 0
DWIDTH 31 0
BBX 27 27 0 0
BITMAP
0FF1FE00
0FF1FE00
0FF1FE00
0FF1FE00
00000000
00000000
00000000
00000000
0FFFFE00
0FFFFE00
0FFFFE00
0FFFFE00
00001FE0
00001FE0
00001FE0
0FFFFFE0
0FFFFFE0
0FFFFFE0
0FFFFFE0
FF001FE0
FF001FE0
FF001FE0
FF001FE0
0FFFE1E0
0FFFE1E0
0FFFE1E0
0FFFE1E0
ENDCHAR
STARTCHAR aring
ENCODING 229
SWIDTH 1142 0
DWIDTH 31 0
BBX 27 27 0 0
BITMAP
00FFE000
00FFE000
00FFE000
00FFE000
0FF1FE00
0FF1FE00
0FF1FE00
0FF1FE00
0FFFFE00
0FFFFE00
0FFFFE00
0FFFFE00
00001FE0
00001FE0
00001FE0
0FFFFFE0
0FFFFFE0
0FFFFFE0
0FFFFFE0
FF001FE0
FF001FE0
FF001FE0
FF001FE0
0FFFE1E0
0FFFE1E0
0FFFE1E0
0FFFE1E0
ENDCHAR
STARTCHAR ae
ENCODING 230
SWIDTH 1142 0
DWIDTH 31 0
BBX 27 23 0 0
BITMAP
0FF1FE00
0FF1FE00
0FF1FE00
0FF1FE00
00FE1FE0
00FE1FE0
00FE1FE0
00FE1FE0
0FFE1FE0
0FFE1FE0
0FFE1FE0
FF0FFE00
FF0FFE00
FF0FFE00
FF0FFE00
FF0FE000
FF0FE000
FF0FE000
FF0FE000
0FF1FE00
0FF1FE00
0FF1FE00
0FF1FE00
ENDCHAR
STARTCHAR ccedilla
ENCODING 231
SWIDTH 1142 0
DWIDTH 31 0
BBX 27 23 0 0
BITMAP
0FFFFE00
0FFFFE00
0FFFFE00
0FFFFE00
FF001FE0
FF001FE0
FF001FE0
FF001FE0
FF000000
FF000000
FF000000
FF001FE0
FF001FE0
FF001FE0
FF001FE0
0FFFFE00
0FFFFE00
0FFFFE00
0FFFFE00
000E0000
000E0000
000E0000
000E0000
ENDCHAR
STARTCHAR egrave
ENCODING 232
SWIDTH 1142 0
DWIDTH 31 0
BBX 27 27 0 0
BITMAP
0FF00000
0FF00000
0FF00000
0FF00000
00FE0000
00FE0000
00FE0000
00FE0000
0FFFFE00
0FFFFE00
0FFFFE00
0FFFFE00
FF001FE0
FF001FE0
FF001FE0
FFFFFE00
FFFFFE00
FFFFFE00
FFFFFE00
FF000000
FF000000
FF000000
FF000000
0FFFFE00
0FFFFE00
0FFFFE00
0FFFFE00
ENDCHAR
STARTCHAR eacute
ENCODING 233
SWIDTH 1142 0
DWIDTH 31 0
BBX 27 27 0 0
BITMAP
0001FE00
0001FE00
0001FE00
0001FE00
000FE000
000FE000
000FE000
000FE000
0FFFFE00
0FFFFE00
0FFFFE00
0FFFFE00
FF001FE0
FF001FE0
FF001FE0
FFFFFE00
FFFFFE00
FFFFFE00
FFFFFE00
FF000000
FF000000
FF000000
FF000000
0FFFFE00
0FFFFE00
0FFFFE00
0FFFFE00
ENDCHAR
STARTCHAR ecircumflex
ENCODING 234
SWIDTH 1142 0
DWIDTH 31 0
BBX 27 27 0 0
BITMAP
000E0000
000E0000
000E0000
000E0000
00F1E000
00F1E000
00F1E000
00F1E000
0FFFFE00
0FFFFE00
0FFFFE00
0FFFFE00
FF001FE0
FF001FE0
FF001FE0
FFFFFE00
FFFFFE00
FFFFFE00
FFFFFE00
FF000000
FF000000
FF000000
FF000000
0FFFFE00
0FFFFE00
0FFFFE00
0FFFFE00
ENDCHAR
STARTCHAR edieresis
ENCODING 235
SWIDTH 1142 0
DWIDTH 31 0
BBX 27 27 0 0
BITMAP
0FF1FE00
0FF1FE00
0FF1FE00
0FF1FE00
00000000
00000000
00000000
00000000
0FFFFE00
0FFFFE00
0FFFFE00
0FFFFE00
FF001FE0
FF001FE0
FF001FE0
FFFFFE00
FFFFFE00
FFFFFE00
FFFFFE00
FF000000
FF000000
FF000000
FF000000
0FFFFE00
0FFFFE00
0FFFFE00
0FFFFE00
ENDCHAR
STARTCHAR igrave
ENCODING 236
SWIDTH 714 0
DWIDTH 19 0
BBX 15 27 0 0
BITMAP
FF00
FF00
FF00
FF00
0FF0
0FF0
0FF0
0FF0
0000
0000
0000
0000
0FF0
0FF0
0FF0
0FF0
0FF0
0FF0
0FF0
0FF0
0FF0
0FF0
0FF0
00FE
00FE
00FE
00FE
ENDCHAR
STARTCHAR iacute
ENCODING 237
SWIDTH 571 0
DWIDTH 15 0
BBX 12 27 0 0
BITMAP
0FF0
0FF0
0FF0
0FF0
FF00
FF00
FF00
FF00
0000
0000
0000
0000
FF00
FF00
FF00
FF00
FF00
FF00
FF00
FF00
FF00
FF00
FF00
0FF0
0FF0
0FF0
0FF0
ENDCHAR
STARTCHAR icircumflex
ENCODING 238
SWIDTH 571 0
DWIDTH 15 0
BBX 12 27 0 0
BITMAP
0F00
0F00
0F00
0F00
F0F0
F0F0
F0F0
F0F0
0000
0000
0000
0000
FF00
FF00
FF00
FF00
FF00
FF00
FF00
FF00
FF00
FF00
FF00
0FF0
0FF0
0FF0
0FF0
ENDCHAR
STARTCHAR idieresis
ENCODING 239
SWIDTH 999 0
DWIDTH 27 0
BBX 23 27 0 0
BITMAP
FF01FE
FF01FE
FF01FE
FF01FE
000000
000000
000000
000000
000000
000000
000000
000000
00FE00
00FE00
00FE00
00FE00
00FE00
00FE00
00FE00
00FE00
00FE00
00FE00
00FE00
000FE0
000FE0
000FE0
000FE0
ENDCHAR
STARTCHAR eth
ENCODING 240
SWIDTH 1142 0
DWIDTH 31 0
BBX 27 27 0 0
BITMAP
00FE1E00
00FE1E00
00FE1E00
00FE1E00
000FE000
000FE000
000FE000
000FE000
00F1FE00
00F1FE00
00F1FE00
00F1FE00
0FFFFFE0
0FFFFFE0
0FFFFFE0
FF001FE0
FF001FE0
FF001FE0
FF001FE0
FF001FE0
FF001FE0
FF001FE0
FF001FE0
0FFFFE00
0FFFFE00
0FFFFE00
0FFFFE00
ENDCHAR
STARTCHAR ntilde
ENCODING 241
SWIDTH 1142 0
DWIDTH 31 0
BBX 27 27 0 0
BITMAP
0FFE1FE0
0FFE1FE0
0FFE1FE0
0FFE1FE0
FF0FFE00
FF0FFE00
FF0FFE00
FF0FFE00
FFFFFE00
FFFFFE00
FFFFFE00
FFFFFE00
FF001FE0
FF001FE0
FF001FE0
FF001FE0
FF001FE0
FF001FE0
FF001FE0
FF001FE0
FF001FE0
FF001FE0
FF001FE0
FF001FE0
FF001FE0
FF001FE0
FF001FE0
ENDCHAR
STARTCHAR ograve
ENCODING 242
SWIDTH 1142 0
DWIDTH 31 0
BBX 27 27 0 0
BITMAP
0FF00000
0FF00000
0FF00000
0FF00000
00FE0000
00FE0000
00FE0000
00FE0000
0FFFFE00
0FFFFE00
0FFFFE00
0FFFFE00
FF001FE0
FF001FE0
FF001FE0
FF001FE0
FF001FE0
FF001FE0
FF001FE0
FF001FE0
FF001FE0
FF001FE0
FF001FE0
0FFFFE00
0FFFFE00
0FFFFE00
0FFFFE00
ENDCHAR
STARTCHAR oacute
ENCODING 243
SWIDTH 1142 0
DWIDTH 31 0
BBX 27 27 0 0
BITMAP
0001FE00
0001FE00
0001FE00
0001FE00
000FE000
000FE000
000FE000
000FE000
0FFFFE00
0FFFFE00
0FFFFE00
0FFFFE00
FF001FE0
FF001FE0
FF001FE0
FF001FE0
FF001FE0
FF001FE0
FF001FE0
FF001FE0
FF001FE0
FF001FE0
FF001FE0
0FFFFE00
0FFFFE00
0FFFFE00
0FFFFE00
ENDCHAR
STARTCHAR ocircumflex
ENCODING 244
SWIDTH 1142 0
DWIDTH 31 0
BBX 27 27 0 0
BITMAP
000E0000
000E0000
000E0000
000E0000
00F1E000
00F1E000
00F1E000
00F1E000
0FFFFE00
0FFFFE00
0FFFFE00
0FFFFE00
FF001FE0
FF001FE0
FF001FE0
FF001FE0
FF001FE0
FF001FE0
FF001FE0
FF001FE0
FF001FE0
FF001FE0
FF001FE0
0FFFFE00
0FFFFE00
0FFFFE00
0FFFFE00
ENDCHAR
STARTCHAR otilde
ENCODING 245
SWIDTH 1142 0
DWIDTH 31 0
BBX 27 27 0 0
BITMAP
0FFE1FE0
0FFE1FE0
0FFE1FE0
0FFE1FE0
FF0FFE00
FF0FFE00
FF0FFE00
FF0FFE00
0FFFFE00
0FFFFE00
0FFFFE00
0FFFFE00
FF001FE0
FF001FE0
FF001FE0
FF001FE0
FF001FE0
FF001FE0
FF001FE0
FF001FE0
FF001FE0
FF001FE0
FF001FE0
0FFFFE00
0FFFFE00
0FFFFE00
0FFFFE00
ENDCHAR
STARTCHAR odieresis
ENCODING 246
SWIDTH 1142 0
DWIDTH 31 0
BBX 27 27 0 0
BITMAP
0FF1FE00
0FF1FE00
0FF1FE00
0FF1FE00
00000000
00000000
00000000
00000000
0FFFFE00
0FFFFE00
0FFFFE00
0FFFFE00
FF001FE0
FF001FE0
FF001FE0
FF001FE0
FF001FE0
FF001FE0
FF001FE0
FF001FE0
FF001FE0
FF001FE0
FF001FE0
0FFFFE00
0FFFFE00
0FFFFE00
0FFFFE00
ENDCHAR
STARTCHAR divide
ENCODING 247
SWIDTH 999 0
DWIDTH 27 0
BBX 23 19 0 4
BITMAP
00FE00
00FE00
00FE00
00FE00
000000
000000
000000
000000
FFFFFE
FFFFFE
FFFFFE
000000
000000
000000
000000
00FE00
00FE00
00FE00
00FE00
ENDCHAR
STARTCHAR oslash
ENCODING 248
SWIDTH 1142 0
DWIDTH 31 0
BBX 27 23 0 0
BITMAP
0FFFE1E0
0FFFE1E0
0FFFE1E0
0FFFE1E0
FF01FE00
FF01FE00
FF01FE00
FF01FE00
FF0E1FE0
FF0E1FE0
FF0E1FE0
FF0E1FE0
FF0E1FE0
FF0E1FE0
FF0E1FE0
0FF01FE0
0FF01FE0
0FF01FE0
0FF01FE0
F0FFFE00
F0FFFE00
F0FFFE00
F0FFFE00
ENDCHAR
STARTCHAR ugrave
ENCODING 249
SWIDTH 1142 0
DWIDTH 31 0
BBX 27 27 0 0
BITMAP
0FF00000
0FF00000
0FF00000
0FF00000
00FE0000
00FE0000
00FE0000
00FE0000
FF001FE0
FF001FE0
FF001FE0
FF001FE0
FF001FE0
FF001FE0
FF001FE0
FF001FE0
FF001FE0
FF001FE0
FF001FE0
FF001FE0
FF001FE0
FF001FE0
FF001FE0
0FFFFE00
0FFFFE00
0FFFFE00
0FFFFE00
ENDCHAR
STARTCHAR uacute
ENCODING 250
SWIDTH 1142 0
DWIDTH 31 0
BBX 27 27 0 0
BITMAP
0001FE00
0001FE00
0001FE00
0001FE00
000FE000
000FE000
000FE000
000FE000
FF001FE0
FF001FE0
FF001FE0
FF001FE0
FF001FE0
FF001FE0
FF001FE0
FF001FE0
FF001FE0
FF001FE0
FF001FE0
FF001FE0
FF001FE0
FF001FE0
FF001FE0
0FFFFE00
0FFFFE00
0FFFFE00
0FFFFE00
ENDCHAR
STARTCHAR ucircumflex
ENCODING 251
SWIDTH 1142 0
DWIDTH 31 0
BBX 27 27 0 0
BITMAP
000E0000
000E0000
000E0000
000E0000
00F1E000
00F1E000
00F1E000
00F1E000
FF001FE0
FF001FE0
FF001FE0
FF001FE0
FF001FE0
FF001FE0
FF001FE0
FF001FE0
FF001FE0
FF001FE0
FF001FE0
FF001FE0
FF001FE0
FF001FE0
FF001FE0
0FFFFE00
0FFFFE00
0FFFFE00
0FFFFE00
ENDCHAR
STARTCHAR udieresis
ENCODING 252
SWIDTH 1142 0
DWIDTH 31 0
BBX 27 27 0 0
BITMAP
0FF1FE00
0FF1FE00
0FF1FE00
0FF1FE00
00000000
00000000
00000000
00000000
FF001FE0
FF001FE0
FF001FE0
FF001FE0
FF001FE0
FF001FE0
FF001FE0
FF001FE0
FF001FE0
FF001FE0
FF001FE0
FF001FE0
FF001FE0
FF001FE0
FF001FE0
0FFFFE00
0FFFFE00
0FFFFE00
0FFFFE00
ENDCHAR
STARTCHAR yacute
ENCODING 253
SWIDTH 1142 0
DWIDTH 31 0
BBX 27 27 0 0
BITMAP
0001FE00
0001FE00
0001FE00
0001FE00
000FE000
000FE000
000FE000
000FE000
FF001FE0
FF001FE0
FF001FE0
FF001FE0
FF001FE0
FF001FE0
FF001FE0
0FFFFFE0
0FFFFFE0
0FFFFFE0
0FFFFFE0
00001FE0
00001FE0
00001FE0
00001FE0
0FFFFE00
0FFFFE00
0FFFFE00
0FFFFE00
ENDCHAR
STARTCHAR thorn
ENCODING 254
SWIDTH 1142 0
DWIDTH 31 0
BBX 27 23 0 0
BITMAP
FF000000
FF000000
FF000000
FF000000
FFFFFE00
FFFFFE00
FFFFFE00
FFFFFE00
FF001FE0
FF001FE0
FF001FE0
FF001FE0
FF001FE0
FF001FE0
FF001FE0
FFFFFE00
FFFFFE00
FFFFFE00
FFFFFE00
FF000000
FF000000
FF000000
FF000000
ENDCHAR
STARTCHAR ydieresis
ENCODING 255
SWIDTH 1142 0
DWIDTH 31 0
BBX 27 27 0 0
BITMAP
0FF1FE00
0FF1FE00
0FF1FE00
0FF1FE00
00000000
00000000
00000000
00000000
FF001FE0
FF001FE0
FF001FE0
FF001FE0
FF001FE0
FF001FE0
FF001FE0
0FFFFFE0
0FFFFFE0
0FFFFFE0
0FFFFFE0
00001FE0
00001FE0
00001FE0
00001FE0
0FFFFE00
0FFFFE00
0FFFFE00
0FFFFE00
ENDCHAR
STARTCHAR OE
ENCODING 338
SWIDTH 1142 0
DWIDTH 31 0
BBX 27 27 0 0
BITMAP
0FFFFFE0
0FFFFFE0
0FFFFFE0
0FFFFFE0
FF0FE000
FF0FE000
FF0FE000
FF0FE000
FF0FE000
FF0FE000
FF0FE000
FF0FE000
FF0FFFE0
FF0FFFE0
FF0FFFE0
FF0FE000
FF0FE000
FF0FE000
FF0FE000
FF0FE000
FF0FE000
FF0FE000
FF0FE000
0FFFFFE0
0FFFFFE0
0FFFFFE0
0FFFFFE0
ENDCHAR
STARTCHAR oe
ENCODING 339
SWIDTH 1142 0
DWIDTH 31 0
BBX 27 23 0 0
BITMAP
0FF1FE00
0FF1FE00
0FF1FE00
0FF1FE00
FF0FE1E0
FF0FE1E0
FF0FE1E0
FF0FE1E0
FF0FE1E0
FF0FE1E0
FF0FE1E0
FF0FFE00
FF0FFE00
FF0FFE00
FF0FFE00
FF0FE000
FF0FE000
FF0FE000
FF0FE000
0FF01FE0
0FF01FE0
0FF01FE0
0FF01FE0
ENDCHAR
STARTCHAR Ydieresis
ENCODING 376
SWIDTH 999 0
DWIDTH 27 0
BBX 23 27 0 0
BITMAP
FF01FE
FF01FE
FF01FE
FF01FE
000000
000000
000000
000000
FF01FE
FF01FE
FF01FE
FF01FE
FF01FE
FF01FE
FF01FE
0FFFE0
0FFFE0
0FFFE0
0FFFE0
00FE00
00FE00
00FE00
00FE00
00FE00
00FE00
00FE00
00FE00
ENDCHAR
STARTCHAR uni1E9E
ENCODING 7838
SWIDTH 1142 0
DWIDTH 31 0
BBX 27 27 0 0
BITMAP
0FFFE000
0FFFE000
0FFFE000
0FFFE000
FF01FE00
FF01FE00
FF01FE00
FF01FE00
FF001FE0
FF001FE0
FF001FE0
FF001FE0
FF01FE00
FF01FE00
FF01FE00
FF001FE0
FF001FE0
FF001FE0
FF001FE0
FF001FE0
FF001FE0
FF001FE0
FF001FE0
FF0FFE00
FF0FFE00
FF0FFE00
FF0FFE00
ENDCHAR
STARTCHAR emdash
ENCODING 8212
SWIDTH 1142 0
DWIDTH 31 0
BBX 27 3 0 12
BITMAP
FFFFFFE0
FFFFFFE0
FFFFFFE0
ENDCHAR
STARTCHAR quoteleft
ENCODING 8216
SWIDTH 428 0
DWIDTH 12 0
BBX 8 15 0 12
BITMAP
0F
0F
0F
0F
F0
F0
F0
F0
FF
FF
FF
FF
FF
FF
FF
ENDCHAR
STARTCHAR quoteright
ENCODING 8217
SWIDTH 428 0
DWIDTH 12 0
BBX 8 15 0 12
BITMAP
FF
FF
FF
FF
FF
FF
FF
FF
0F
0F
0F
0F
F0
F0
F0
ENDCHAR
STARTCHAR quotesinglbase
ENCODING 8218
SWIDTH 428 0
DWIDTH 12 0
BBX 8 15 0 0
BITMAP
FF
FF
FF
FF
FF
FF
FF
0F
0F
0F
0F
F0
F0
F0
F0
ENDCHAR
STARTCHAR quotereversed
ENCODING 8219
SWIDTH 428 0
DWIDTH 12 0
BBX 8 15 0 12
BITMAP
FF
FF
FF
FF
FF
FF
FF
FF
F0
F0
F0
F0
0F
0F
0F
ENDCHAR
STARTCHAR quotedblleft
ENCODING 8220
SWIDTH 856 0
DWIDTH 23 0
BBX 19 15 0 12
BITMAP
0F01E0
0F01E0
0F01E0
0F01E0
F00E00
F00E00
F00E00
F00E00
FF0FE0
FF0FE0
FF0FE0
FF0FE0
FF0FE0
FF0FE0
FF0FE0
ENDCHAR
STARTCHAR quotedblright
ENCODING 8221
SWIDTH 856 0
DWIDTH 23 0
BBX 19 15 0 12
BITMAP
FF0FE0
FF0FE0
FF0FE0
FF0FE0
FF0FE0
FF0FE0
FF0FE0
FF0FE0
0F01E0
0F01E0
0F01E0
0F01E0
F00E00
F00E00
F00E00
ENDCHAR
STARTCHAR quotedblbase
ENCODING 8222
SWIDTH 856 0
DWIDTH 23 0
BBX 19 15 0 0
BITMAP
FF0FE0
FF0FE0
FF0FE0
FF0FE0
FF0FE0
FF0FE0
FF0FE0
0F01E0
0F01E0
0F01E0
0F01E0
F00E00
F00E00
F00E00
F00E00
ENDCHAR
STARTCHAR dagger
ENCODING 8224
SWIDTH 999 0
DWIDTH 27 0
BBX 23 27 0 0
BITMAP
00FE00
00FE00
00FE00
00FE00
00FE00
00FE00
00FE00
00FE00
FFFFFE
FFFFFE
FFFFFE
FFFFFE
00FE00
00FE00
00FE00
00FE00
00FE00
00FE00
00FE00
00FE00
00FE00
00FE00
00FE00
00FE00
00FE00
00FE00
00FE00
ENDCHAR
STARTCHAR bullet
ENCODING 8226
SWIDTH 714 0
DWIDTH 19 0
BBX 15 15 0 4
BITMAP
0FF0
0FF0
0FF0
0FF0
FFFE
FFFE
FFFE
FFFE
FFFE
FFFE
FFFE
0FF0
0FF0
0FF0
0FF0
ENDCHAR
STARTCHAR ellipsis
ENCODING 8230
SWIDTH 1142 0
DWIDTH 31 0
BBX 27 8 0 0
BITMAP
F0FE1FE0
F0FE1FE0
F0FE1FE0
F0FE1FE0
F0FE1FE0
F0FE1FE0
F0FE1FE0
F0FE1FE0
ENDCHAR
STARTCHAR guilsinglleft
ENCODING 8249
SWIDTH 714 0
DWIDTH 19 0
BBX 15 19 0 4
BITMAP
00FE
00FE
00FE
00FE
0FF0
0FF0
0FF0
0FF0
FF00
FF00
FF00
0FF0
0FF0
0FF0
0FF0
00FE
00FE
00FE
00FE
ENDCHAR
STARTCHAR guilsinglright
ENCODING 8250
SWIDTH 714 0
DWIDTH 19 0
BBX 15 19 0 4
BITMAP
FF00
FF00
FF00
FF00
0FF0
0FF0
0FF0
0FF0
00FE
00FE
00FE
0FF0
0FF0
0FF0
0FF0
FF00
FF00
FF00
FF00
ENDCHAR
STARTCHAR Euro
ENCODING 8364
SWIDTH 1142 0
DWIDTH 31 0
BBX 27 27 0 0
BITMAP
00FFFE00
00FFFE00
00FFFE00
00FFFE00
0FF01FE0
0FF01FE0
0FF01FE0
0FF01FE0
FFFFE000
FFFFE000
FFFFE000
FFFFE000
0FF00000
0FF00000
0FF00000
FFFFE000
FFFFE000
FFFFE000
FFFFE000
0FF01FE0
0FF01FE0
0FF01FE0
0FF01FE0
00FFFE00
00FFFE00
00FFFE00
00FFFE00
ENDCHAR
STARTCHAR trademark
ENCODING 8482
SWIDTH 1142 0
DWIDTH 31 0
BBX 27 15 0 12
BITMAP
FFFE01E0
FFFE01E0
FFFE01E0
FFFE01E0
0F0FFFE0
0F0FFFE0
0F0FFFE0
0F0FFFE0
0F0E01E0
0F0E01E0
0F0E01E0
0F0E01E0
0F0E01E0
0F0E01E0
0F0E01E0
ENDCHAR
STARTCHAR .notdef
ENCODING -1
SWIDTH 1142 0
DWIDTH 31 0
BBX 27 27 0 0
BITMAP
0FFFFE00
0FFFFE00
0FFFFE00
0FFFFE00
FF001FE0
FF001FE0
FF001FE0
FF001FE0
FF001FE0
FF001FE0
FF001FE0
FF001FE0
FF001FE0
FF001FE0
FF001FE0
FF0FFE00
FF0FFE00
FF0FFE00
FF0FFE00
FF000000
FF000000
FF000000
FF000000
0FFFFE00
0FFFFE00
0FFFFE00
0FFFFE00
ENDCHAR
STARTCHAR glyph1
ENCODING -1
SWIDTH 0 0
DWIDTH 0 0
BBX 1 1 0 0
BITMAP
00
ENDCHAR
STARTCHAR glyph2
ENCODING -1
SWIDTH 428 0
DWIDTH 12 0
BBX 1 1 0 0
BITMAP
00
ENDCHAR
ENDFONT
